<?xml version="1.0" standalone="no"?>
<!DOCTYPE svg PUBLIC "-//W3C//DTD SVG 1.1//EN" "http://www.w3.org/Graphics/SVG/1.1/DTD/svg11.dtd" >
<svg xmlns="http://www.w3.org/2000/svg" xmlns:xlink="http://www.w3.org/1999/xlink" version="1.1">
<metadata>
Created by FontForge 20190801 at Sun Apr 16 17:10:37 2017
 By Unknown
 
</metadata>
<defs>
<font id="AdlantaLight" horiz-adv-x="637" >
  <font-face 
    font-family="Adlanta"
    font-weight="500"
    font-stretch="normal"
    units-per-em="1000"
    panose-1="0 0 0 0 0 0 0 0 0 0"
    ascent="800"
    descent="-200"
    x-height="457.692"
    cap-height="753.844"
    bbox="-0.00195312 -255.77 899.626 780.769"
    underline-thickness="0"
    underline-position="0"
    unicode-range="U+000D-E990"
  />
<missing-glyph horiz-adv-x="650" 
 />
    <glyph glyph-name=".notdef" horiz-adv-x="650" 
 />
    <glyph glyph-name="controlCR" unicode="&#xd;" horiz-adv-x="357" 
 />
    <glyph glyph-name="space" unicode=" " horiz-adv-x="357" 
 />
    <glyph glyph-name="exclam" unicode="!" horiz-adv-x="206" 
d="M80.7695 40.3848c0 -22.3037 -18.0811 -40.3848 -40.3848 -40.3848s-40.3848 18.0811 -40.3848 40.3848s18.0811 40.3848 40.3848 40.3848s40.3848 -18.0811 40.3848 -40.3848zM40.3848 148.077c-7.43359 0 -13.4609 6.02051 -13.4609 13.4609v565.385
c0 7.44043 6.02734 13.4609 13.4609 13.4609s13.4609 -6.02051 13.4609 -13.4609v-565.385c0 -7.44043 -6.02734 -13.4609 -13.4609 -13.4609z" />
    <glyph glyph-name="quotedbl" unicode="&#x22;" horiz-adv-x="300" 
d="M175 726.923c-2.23438 -30.2979 -12.4668 -59.4238 -28.9561 -83.5645c-16.4229 -24.1982 -38.9092 -43.4639 -64.1689 -55.7207c22.9951 16.1348 41.1348 38.0244 52.4912 62.417c11.4346 24.3896 15.9531 51.1797 13.71 76.8652
c-0.649414 7.43457 4.85059 13.9883 12.2852 14.6377s13.9873 -4.85059 14.6367 -12.2842c0.0625 -0.708008 0.0683594 -1.40625 0.0224609 -2.09277zM93.125 726.919c-2.23438 -30.2979 -12.4658 -59.4238 -28.9551 -83.5645
c-16.4229 -24.1982 -38.9092 -43.4639 -64.1689 -55.7207c22.9951 16.1348 41.1348 38.0244 52.4912 62.417c11.4346 24.3896 15.9531 51.1797 13.71 76.8652c-0.649414 7.43457 4.85059 13.9883 12.2842 14.6377c7.43457 0.649414 13.9873 -4.85059 14.6367 -12.2842
c0.0615234 -0.708008 0.0683594 -1.40625 0.0224609 -2.09277z" />
    <glyph glyph-name="numbersign" unicode="#" horiz-adv-x="876" 
d="M15.8672 472.744c-7.42773 0 -13.4492 6.00488 -13.4619 13.4326c-0.0126953 7.44043 6.00781 13.4746 13.4355 13.4873l233.512 0.410156l35.9824 228.936c1.15723 7.34863 8.03223 12.3574 15.3936 11.2139c7.34863 -1.15723 12.3574 -8.0459 11.2139 -15.3945
l-35.3174 -224.707l220.358 0.386719l35.918 228.501c1.15723 7.34863 8.03223 12.3574 15.3936 11.2139c7.34863 -1.15723 12.3574 -8.0459 11.2139 -15.3945l-35.2539 -224.272l210.228 0.369141h0.0253906c7.42773 0 13.4482 -6.00781 13.4609 -13.4355
c0.0126953 -7.44043 -6.00781 -13.4746 -13.4355 -13.4873l-214.513 -0.376953l-34.5527 -219.812l251.944 -0.901367c7.42773 -0.0263672 13.4355 -6.07324 13.4092 -13.5137c-0.0263672 -7.41406 -6.04688 -13.4082 -13.4609 -13.4082h-0.0517578l-256.069 0.916016
l-35.9961 -229c-1.05176 -6.63867 -6.77051 -11.3711 -13.291 -11.3711c-0.696289 0 -1.39258 0.0527344 -2.10254 0.158203c-7.34863 1.15723 -12.3574 8.0459 -11.2139 15.3945l35.3545 224.917l-220.169 0.788086l-36.1318 -229.885
c-1.05176 -6.63867 -6.77051 -11.3711 -13.291 -11.3711c-0.696289 0 -1.39258 0.0527344 -2.10254 0.158203c-7.34863 1.15723 -12.3574 8.0459 -11.2139 15.3945l35.4902 225.802l-193.137 0.691406c-7.42773 0.0263672 -13.4355 6.07324 -13.4092 13.5137
c0.0263672 7.41406 6.04688 13.4082 13.4609 13.4082h0.0517578l197.261 -0.706055l34.3184 218.347l-229.226 -0.402344h-0.0253906zM272.391 473.191l-34.3408 -218.492l220.169 -0.788086l34.5293 219.667z" />
    <glyph glyph-name="dollar" unicode="$" horiz-adv-x="478" 
d="M53.4717 29.8018c-7.43457 0 -13.4521 6.01953 -13.459 13.4473c-0.00683594 7.44043 6.02051 13.4746 13.4541 13.4746l146.9 0.0791016c69.4961 0 126.03 56.5283 126.03 126.019s-56.5342 126.031 -126.024 126.031c-0.728516 0 -1.44336 0.0576172 -2.14062 0.168945
c-0.513672 -0.0595703 -1.03613 -0.0898438 -1.56641 -0.0898438h-43.7109c-84.3379 0 -152.953 68.6094 -152.953 152.954s68.6152 152.954 152.954 152.954h10.2471v110.559c0 7.44043 6.02734 13.4609 13.4609 13.4609c7.43457 0 13.4619 -6.02051 13.4619 -13.4609
v-110.559h102.007c7.43359 0 13.4609 -6.02051 13.4609 -13.4609s-6.02734 -13.4609 -13.4619 -13.4609h-139.177c-69.4961 0 -126.03 -56.541 -126.03 -126.031s56.5342 -126.031 126.03 -126.031h43.7109c0.728516 0 1.44336 -0.0576172 2.14062 -0.168945
c0.513672 0.0595703 1.03613 0.0898438 1.56641 0.0898438c84.3379 0 152.947 -68.6094 152.947 -152.954c0 -84.332 -68.6094 -152.941 -152.948 -152.941l-10.2471 -0.00585938v-110.645c0 -7.44043 -6.02734 -13.4609 -13.4609 -13.4609
c-7.43457 0 -13.4619 6.02051 -13.4619 13.4609v110.63l-109.724 -0.0585938h-0.00683594z" />
    <glyph glyph-name="percent" unicode="%" horiz-adv-x="879" 
d="M134.773 -13.4619c-2.53711 0 -5.10059 0.709961 -7.3877 2.20898c-6.20508 4.08887 -7.92676 12.4365 -3.85156 18.6543l477.977 726.923c4.08887 6.20508 12.4365 7.91406 18.6543 3.85156c6.20508 -4.08887 7.92676 -12.4365 3.85156 -18.6543l-477.977 -726.923
c-2.58984 -3.93066 -6.88867 -6.06055 -11.2666 -6.06055zM589.481 289.423c-75.7871 0 -137.442 -61.6553 -137.442 -137.442s61.6553 -137.442 137.442 -137.442s137.442 61.6553 137.442 137.442s-61.6553 137.442 -137.442 137.442zM589.481 -12.3838
c-90.6289 0 -164.365 73.7363 -164.365 164.365s73.7363 164.365 164.365 164.365s164.365 -73.7363 164.365 -164.365s-73.7363 -164.365 -164.365 -164.365zM164.365 713.461c-75.7871 0 -137.442 -61.6553 -137.442 -137.442s61.6553 -137.442 137.442 -137.442
s137.442 61.6553 137.442 137.442s-61.6553 137.442 -137.442 137.442zM164.365 411.654c-90.6289 0 -164.365 73.7363 -164.365 164.365s73.7363 164.365 164.365 164.365s164.365 -73.7363 164.365 -164.365s-73.7363 -164.365 -164.365 -164.365z" />
    <glyph glyph-name="ampersand" unicode="&#x26;" horiz-adv-x="647" 
d="M136.508 439.823l96.8389 -109.601c0.461914 3.0752 1.9873 6.00586 4.53223 8.19531l122.034 104.984l0.0390625 -0.0390625c29.1582 29.5264 45.499 68.9912 45.499 111.309c0 87.5527 -71.2383 158.791 -158.791 158.791s-158.778 -71.2383 -158.778 -158.791
c0 -42.541 16.6035 -82.4922 46.7471 -112.505c0.726562 -0.724609 1.35254 -1.51172 1.87891 -2.34375zM411.305 88.1641l-288.726 326.774c-60.1045 -41.0645 -95.6553 -108.062 -95.6553 -181.387c0 -121.167 98.5693 -219.749 219.736 -219.749
c65.4727 0 124.351 28.7842 164.645 74.3613zM247.01 314.76l181.129 -205.001c24.1387 35.2764 38.2705 77.915 38.2705 123.791c0 32.4834 -6.91504 63.7451 -20.5605 92.9297c-3.1416 6.74414 -0.236328 14.75 6.49414 17.9053
c6.7832 3.1416 14.7627 0.236328 17.9043 -6.49414c15.3154 -32.7861 23.085 -67.8994 23.085 -104.34c0 -53.9355 -17.3975 -103.882 -46.876 -144.522l70.7881 -80.1172c4.92969 -5.57422 4.4043 -14.0801 -1.16992 -18.9971
c-2.56348 -2.26074 -5.74512 -3.37793 -8.91309 -3.37793c-3.7207 0 -7.42773 1.53809 -10.083 4.54883l-67.8311 76.7695c-45.1572 -49.7158 -110.288 -80.9766 -182.587 -80.9766c-136.009 0 -246.659 110.65 -246.659 246.673c0 81.1338 38.7656 155.367 104.495 201.61
c-28.1836 33.4189 -43.5371 75.2734 -43.5371 119.509c0 102.407 83.3066 185.714 185.701 185.714c102.407 0 185.714 -83.3066 185.714 -185.714c0 -58.6572 -26.8574 -112.648 -73.6836 -148.116l-0.131836 0.170898l-103.117 -88.709
c-2.44238 -2.11328 -5.43262 -3.17871 -8.43164 -3.25586z" />
    <glyph glyph-name="quotesingle" unicode="'" horiz-adv-x="218" 
d="M93.125 726.923c-2.23438 -30.2979 -12.4658 -59.4238 -28.9551 -83.5645c-16.4229 -24.1982 -38.9092 -43.4639 -64.1689 -55.7207c22.9951 16.1348 41.1348 38.0244 52.4912 62.417c11.4346 24.3896 15.9531 51.1797 13.71 76.8652
c-0.649414 7.43457 4.85059 13.9883 12.2842 14.6377c7.43457 0.649414 13.9873 -4.85059 14.6367 -12.2842c0.0615234 -0.708008 0.0683594 -1.40625 0.0224609 -2.09277z" />
    <glyph glyph-name="parenleft" unicode="(" horiz-adv-x="515" 
d="M376.923 -13.4619c-207.839 0 -376.922 169.082 -376.922 376.921s169.084 376.923 376.923 376.923c7.43359 0 13.4609 -6.02051 13.4609 -13.4609s-6.02734 -13.4609 -13.4609 -13.4609c-192.99 0 -350 -157.003 -350 -350s157.01 -350 350 -350
c7.43359 0 13.4609 -6.02051 13.4609 -13.4609s-6.02734 -13.4609 -13.4619 -13.4609z" />
    <glyph glyph-name="parenright" unicode=")" horiz-adv-x="515" 
d="M13.4619 -13.4619c-7.44043 0 -13.4609 6.02246 -13.4609 13.4629s6.02051 13.4609 13.4609 13.4609c192.997 0 350 157.003 350 350s-157.003 350 -350 350c-7.44043 0 -13.4609 6.02051 -13.4609 13.4609s6.02051 13.4609 13.4609 13.4609
c207.839 0 376.923 -169.084 376.923 -376.923s-169.084 -376.923 -376.923 -376.923z" />
    <glyph glyph-name="asterisk" unicode="*" horiz-adv-x="397" 
d="M137.021 471.154c-7.44043 0 -13.46 6.02148 -13.46 13.4619v94.3848l-97.7148 -74.2061c-2.43164 -1.84082 -5.28418 -2.73438 -8.12402 -2.73438c-4.0625 0 -8.08496 1.82715 -10.7402 5.32422c-4.49609 5.91602 -3.33887 14.3691 2.58984 18.8652l105.093 79.7979
l-107.498 80.5312c-5.95508 4.46973 -7.16406 12.8965 -2.70801 18.8516c4.46973 5.92871 12.8828 7.1377 18.8516 2.70703l100.252 -75.1025v93.8877c0 7.44043 6.02051 13.4609 13.4609 13.4609s13.4609 -6.02051 13.4609 -13.4609v-93.6875l98.6475 74.8496
c5.92871 4.49609 14.3555 3.32617 18.8643 -2.58984c4.49609 -5.92871 3.32617 -14.3682 -2.58984 -18.8643l-106.062 -80.4668l106.022 -79.8887c5.94238 -4.46973 7.12598 -12.9229 2.65625 -18.8516c-2.64258 -3.50977 -6.67871 -5.36328 -10.7676 -5.36328
c-2.81348 0 -5.66602 0.880859 -8.08496 2.70801l-98.6875 74.3555v-94.5088c0 -7.44043 -6.02051 -13.4609 -13.4609 -13.4609z" />
    <glyph glyph-name="plus" unicode="+" horiz-adv-x="397" 
d="M135.924 268.902c-7.43359 0 -13.4609 6.02051 -13.4609 13.4609v108.021h-109c-7.43359 0 -13.4609 6.02051 -13.4609 13.4609s6.02734 13.4609 13.4609 13.4609h109v108.021c0 7.44043 6.02734 13.4609 13.4609 13.4609s13.4609 -6.02051 13.4609 -13.4609v-108.021
h109c7.43359 0 13.4609 -6.02051 13.4609 -13.4609s-6.02734 -13.4609 -13.4609 -13.4609h-109v-108.021c0 -7.44043 -6.02734 -13.4609 -13.4609 -13.4609z" />
    <glyph glyph-name="comma" unicode="," horiz-adv-x="218" 
d="M93.125 58.5127c-2.2334 -30.2979 -12.4668 -59.4219 -28.9561 -83.5615c-16.4229 -24.2002 -38.9092 -43.4658 -64.1689 -55.7217c22.9951 16.1348 41.1357 38.0244 52.4922 62.417c11.4346 24.3877 15.9531 51.1797 13.71 76.8652
c-0.649414 7.43457 4.85059 13.9883 12.2852 14.6377s13.9873 -4.85254 14.6367 -12.2871c0.0615234 -0.707031 0.0673828 -1.40527 0.0214844 -2.0918z" />
    <glyph glyph-name="hyphen" unicode="-" horiz-adv-x="337" 
d="M198.558 390.385h-185.095c-7.43359 0 -13.4609 6.02051 -13.4609 13.4609s6.02734 13.4609 13.4609 13.4609h185.096c7.43359 0 13.4609 -6.02051 13.4609 -13.4609s-6.02734 -13.4609 -13.4619 -13.4609z" />
    <glyph glyph-name="period" unicode="." horiz-adv-x="131" 
d="M80.7695 40.3848c0 -22.3037 -18.0811 -40.3848 -40.3848 -40.3848s-40.3848 18.0811 -40.3848 40.3848s18.0811 40.3848 40.3848 40.3848s40.3848 -18.0811 40.3848 -40.3848z" />
    <glyph glyph-name="slash" unicode="/" horiz-adv-x="271" 
d="M14.4736 -17.7471c-0.696289 0 -1.41992 0.0527344 -2.14258 0.170898c-7.33594 1.16992 -12.3311 8.07129 -11.1611 15.4199l116.789 731.209c1.16992 7.32227 7.95312 12.3574 15.4199 11.1611c7.33594 -1.16992 12.3311 -8.07129 11.1611 -15.4199l-116.789 -731.209
c-1.05176 -6.6123 -6.77051 -11.332 -13.2773 -11.332z" />
    <glyph glyph-name="zero" unicode="0" horiz-adv-x="611" 
d="M242.88 713.462c-119.077 0 -215.957 -157.003 -215.957 -350s96.8799 -350 215.957 -350s215.957 157.003 215.957 350s-96.8799 350 -215.957 350zM242.88 -13.4609c-133.925 0 -242.879 169.084 -242.879 376.923s108.954 376.923 242.879 376.923
s242.879 -169.084 242.879 -376.923s-108.954 -376.923 -242.879 -376.923z" />
    <glyph glyph-name="one" unicode="1" horiz-adv-x="464" 
d="M325.607 -0.0126953c-7.43359 0 -13.4609 6.01953 -13.4609 13.46v465.821c-30.1982 -46.8574 -82.8447 -77.9473 -142.615 -77.9473c-93.4814 0 -169.531 76.0498 -169.531 169.531s76.0498 169.531 169.531 169.531c92.3311 0 167.663 -74.1904 169.503 -166.089
c0.0224609 -0.320312 0.0341797 -0.644531 0.0341797 -0.970703v-559.876c0 -7.44043 -6.02734 -13.4609 -13.4609 -13.4609zM169.531 713.461c-78.6328 0 -142.608 -63.9688 -142.608 -142.608s63.9756 -142.608 142.608 -142.608
c78.6396 0 142.615 63.9688 142.615 142.608s-63.9756 142.608 -142.615 142.608z" />
    <glyph glyph-name="two" unicode="2" horiz-adv-x="593" 
d="M454.373 -13.4619l-439.029 -0.000976562h-0.00292969h-0.00292969c-0.400391 0 -0.801758 0.0175781 -1.20215 0.0537109c-6.74219 0.599609 -12.0557 6.16602 -12.248 13.0234c-0.0478516 1.61621 0.194336 3.24512 0.734375 4.80176
c0.553711 1.59668 1.39941 3.05664 2.47363 4.31543l339.798 414.451c55.8047 87.5391 30.2617 204.236 -57.1465 260.449c-87.6113 56.3174 -204.736 30.8799 -261.08 -56.7383c-4.02246 -6.24414 -12.3506 -8.09766 -18.6084 -4.03516
c-6.25098 4.02246 -8.05859 12.3438 -4.04199 18.6016c64.3633 100.081 198.177 129.199 298.297 64.8096c100.107 -64.376 129.18 -198.189 64.8164 -298.297l-0.914062 -1.24902l-322.431 -393.264h410.588c7.43359 0 13.4609 -6.02051 13.4609 -13.4609
s-6.02734 -13.4609 -13.4609 -13.4609z" />
    <glyph glyph-name="three" unicode="3" horiz-adv-x="330" 
d="M13.4619 -0.0126953c-7.43359 0 -13.4619 6.02637 -13.4619 13.4668s6.02734 13.4609 13.4609 13.4609c90.9307 0 164.903 73.9727 164.903 164.903s-73.9727 164.917 -164.903 164.917c-7.43359 0 -13.4609 6.02051 -13.4609 13.4609s6.02734 13.4609 13.4609 13.4609
c90.9307 0 164.903 73.9727 164.903 164.903s-73.9727 164.903 -164.903 164.903c-7.43359 0 -13.4609 6.02051 -13.4609 13.4609s6.02734 13.4609 13.4619 13.4609c105.773 0 191.827 -86.0537 191.827 -191.827c0 -80.8535 -50.2832 -150.185 -121.221 -178.365
c70.9375 -28.1807 121.221 -97.5146 121.221 -178.379c0 -105.773 -86.0537 -191.827 -191.827 -191.827z" />
    <glyph glyph-name="four" unicode="4" horiz-adv-x="517" 
d="M15.3418 228.846c-0.579102 0 -1.16113 0.0361328 -1.74121 0.111328c-3.1582 0.410156 -5.97168 1.91309 -8.04883 4.11719c-0.304688 0.322266 -0.59082 0.658203 -0.858398 1.00586c-1.75684 2.27441 -2.80176 5.12695 -2.80176 8.22656
c0 2.76855 0.833984 5.34082 2.26367 7.47949l302.444 483.911c0.407227 0.699219 0.875977 1.3584 1.39844 1.96973c3.56738 4.20117 9.35059 5.76367 14.5107 4.02637c2.13086 -0.710938 4.02344 -1.94043 5.5293 -3.53906
c0.304688 -0.322266 0.59082 -0.658203 0.858398 -1.00586c1.75684 -2.27441 2.80176 -5.12695 2.80176 -8.22656v-471.154h47.1152c7.44043 0 13.4609 -6.02051 13.4609 -13.4609s-6.02051 -13.4609 -13.4609 -13.4609h-47.1152v-228.846
c0 -7.44043 -6.02051 -13.4609 -13.4609 -13.4609s-13.4609 6.02051 -13.4609 13.4609v228.846h-289.423h-0.00585938h-0.00585938zM304.777 255.768v424.22l-265.138 -424.22h265.138z" />
    <glyph glyph-name="five" unicode="5" horiz-adv-x="514" 
d="M135.496 -13.4619c-44.5918 0 -88.458 11.7393 -126.857 33.9561c-6.42871 3.7207 -8.6377 11.9502 -4.9043 18.3916c3.69434 6.44141 11.9102 8.67578 18.3916 4.90332c34.2979 -19.8369 73.499 -30.3271 113.371 -30.3271c125.045 0 226.769 101.724 226.769 226.769
c0 125.032 -101.724 226.756 -226.769 226.756c-39.8584 0 -79.0596 -10.4902 -113.371 -30.3271c-6.48145 -3.70703 -14.6846 -1.51172 -18.4053 4.91699c-1.42285 2.46289 -1.97852 5.1875 -1.7627 7.82227c-0.0253906 0.337891 -0.0380859 0.679688 -0.0380859 1.02441
v270.256c0 1.0752 0.125977 2.12012 0.363281 3.12207c-0.237305 1.00195 -0.363281 2.04688 -0.363281 3.12207c0 7.44043 6.02051 13.4609 13.4609 13.4609h360.333c7.44043 0 13.4609 -6.02051 13.4609 -13.4609s-6.02051 -13.4609 -13.4609 -13.4609h-346.871v-243
c33.2607 15.3877 69.7041 23.4482 106.653 23.4482c139.887 0 253.692 -113.806 253.692 -253.68c0 -139.887 -113.806 -253.692 -253.692 -253.692z" />
    <glyph glyph-name="six" unicode="6" horiz-adv-x="554" 
d="M214.478 -13.4619c-116.503 0 -211.612 93.375 -214.416 209.215c-0.0419922 0.433594 -0.0634766 0.873047 -0.0634766 1.31836l0.000976562 3.19629c-0.000976562 0.249023 -0.000976562 0.498047 -0.000976562 0.74707
c0 0.307617 0.000976562 0.615234 0.00195312 0.922852l0.129883 322.72c3.93066 114.831 98.5693 207.037 214.347 207.037c97.5176 0 182.849 -65.8086 207.511 -160.053c1.87988 -7.19043 -2.43164 -14.5391 -9.62207 -16.4316
c-7.2041 -1.80078 -14.54 2.43262 -16.4326 9.62305c-21.5596 82.3994 -96.1768 139.939 -181.455 139.939c-103.42 0 -187.555 -84.1348 -187.555 -187.555v-212.239c36.6523 65.8594 106.987 110.515 187.555 110.515c118.262 0 214.478 -96.2158 214.478 -214.478
s-96.2158 -214.478 -214.478 -214.478zM214.476 388.57c-103.42 0 -187.555 -84.1348 -187.555 -187.555s84.1348 -187.555 187.555 -187.555s187.555 84.1348 187.555 187.555s-84.1348 187.555 -187.555 187.555z" />
    <glyph glyph-name="seven" unicode="7" horiz-adv-x="515" 
d="M134.05 -0.0126953c-1.43262 0 -2.88086 0.223633 -4.31348 0.709961c-7.0459 2.37988 -10.8184 10.0176 -8.43848 17.0635l235.156 695.701h-342.993c-7.44043 0 -13.4609 6.02051 -13.4609 13.4609s6.02051 13.4609 13.4609 13.4609h361.491
c0.75 0.0146484 1.50684 -0.0332031 2.26367 -0.147461c2.01562 -0.299805 3.88477 -1.0459 5.50391 -2.13477c1.05566 -0.707031 1.99121 -1.55176 2.79004 -2.50098c1.5498 -1.83691 2.61621 -4.0957 3.00391 -6.58105
c0.191406 -1.21191 0.21875 -2.45996 0.0664062 -3.71289c-0.126953 -1.06543 -0.378906 -2.09277 -0.740234 -3.06641l-241.039 -713.104c-1.89258 -5.61328 -7.1377 -9.14941 -12.751 -9.14941z" />
    <glyph glyph-name="eight" unicode="8" horiz-adv-x="515" 
d="M195.192 350c-92.7852 0 -168.27 -75.4844 -168.27 -168.27s75.4844 -168.27 168.27 -168.27s168.27 75.4844 168.27 168.27s-75.4844 168.27 -168.27 168.27zM195.192 -13.4619c-107.627 0 -195.192 87.5654 -195.192 195.192c0 82.498 51.4492 153.209 123.945 181.731
c-72.4961 28.5225 -123.945 99.2334 -123.945 181.731c-0 107.627 87.5654 195.192 195.192 195.192s195.192 -87.5654 195.192 -195.192c0 -82.498 -51.4492 -153.209 -123.945 -181.731c72.4961 -28.5225 123.945 -99.2334 123.945 -181.731
c0 -107.627 -87.5654 -195.192 -195.192 -195.192zM195.192 713.461c-92.7852 0 -168.27 -75.4844 -168.27 -168.27s75.4844 -168.27 168.27 -168.27s168.27 75.4844 168.27 168.27s-75.4844 168.27 -168.27 168.27z" />
    <glyph glyph-name="nine" unicode="9" horiz-adv-x="552" 
d="M213.248 -0.394531c-96.9648 0 -181.804 65.4424 -206.314 159.134c-1.88672 7.19043 2.41895 14.5518 9.61621 16.4316c7.22363 1.81445 14.5527 -2.44531 16.4258 -9.62305c21.415 -81.8477 95.5459 -139.02 180.272 -139.02c102.743 0 186.332 83.582 186.332 186.331
v210.621c-36.4854 -65.332 -106.335 -109.606 -186.333 -109.606c-117.585 0 -213.249 95.6641 -213.249 213.255s95.6641 213.255 213.249 213.255c115.843 0 210.405 -92.8398 213.192 -208.023c0.0419922 -0.432617 0.0634766 -0.871094 0.0634766 -1.31445
l-0.000976562 -3.18945c0.000976562 -0.242188 0.000976562 -0.485352 0.000976562 -0.728516c0 -0.297852 -0.000976562 -0.595703 -0.00195312 -0.893555l-0.123047 -320.775c-3.91113 -114.173 -98.0166 -205.854 -213.13 -205.854zM213.247 713.462
c-102.743 0 -186.325 -83.582 -186.325 -186.331s83.582 -186.331 186.325 -186.331s186.332 83.582 186.332 186.331s-83.5889 186.331 -186.332 186.331z" />
    <glyph glyph-name="colon" unicode=":" horiz-adv-x="206" 
d="M80.7695 363.462c0 -22.3037 -18.0811 -40.3848 -40.3848 -40.3848s-40.3848 18.0811 -40.3848 40.3848s18.0811 40.3848 40.3848 40.3848s40.3848 -18.0811 40.3848 -40.3848zM80.7695 525c0 -22.3037 -18.0811 -40.3848 -40.3848 -40.3848
s-40.3848 18.0811 -40.3848 40.3848s18.0811 40.3848 40.3848 40.3848s40.3848 -18.0811 40.3848 -40.3848z" />
    <glyph glyph-name="semicolon" unicode=";" horiz-adv-x="245" 
d="M93.125 380.098c-2.23438 -30.2979 -12.4658 -59.4219 -28.9551 -83.5625c-16.4238 -24.2002 -38.9102 -43.4658 -64.1699 -55.7217c22.9941 16.1348 41.1348 38.0244 52.4912 62.417c11.4346 24.3896 15.9531 51.1797 13.7109 76.8652
c-0.649414 7.43457 4.85059 13.9883 12.2852 14.6377s13.9873 -4.85059 14.6367 -12.2852c0.0615234 -0.708008 0.0673828 -1.40625 0.0214844 -2.09277zM120.049 526.489c0 -22.3037 -18.0811 -40.3848 -40.3848 -40.3848s-40.3848 18.0811 -40.3848 40.3848
s18.0811 40.3848 40.3848 40.3848s40.3848 -18.0811 40.3848 -40.3848z" />
    <glyph glyph-name="less" unicode="&#x3c;" horiz-adv-x="334" 
d="M185.096 232.316l-178.829 161.26c-0.452148 0.383789 -0.883789 0.801758 -1.29102 1.25391c-2.32129 2.5752 -3.46387 5.80273 -3.46289 9.01758c-0.000976562 3.21484 1.1416 6.44238 3.46289 9.01758c0.399414 0.442383 0.821289 0.851562 1.2627 1.22852
l178.857 161.282c5.52148 4.99512 14.04 4.54785 19.0156 -0.973633s4.53516 -14.04 -0.979492 -19.0088l-168.062 -151.548l168.062 -151.548c5.51465 -4.96875 5.95508 -13.4873 0.979492 -19.0088c-2.65527 -2.94434 -6.32324 -4.44336 -10.0039 -4.44336
c-3.20801 0 -6.43555 1.14355 -9.01172 3.4707z" />
    <glyph glyph-name="equal" unicode="=" horiz-adv-x="505" 
d="M366.893 309.615h-353.432c-7.43359 0 -13.4609 6.02051 -13.4609 13.4609s6.02734 13.4609 13.4619 13.4609h353.431c7.43359 0 13.4609 -6.02051 13.4609 -13.4609s-6.02734 -13.4609 -13.4609 -13.4609zM366.892 471.153h-353.431
c-7.43359 0 -13.4609 6.02051 -13.4609 13.4609s6.02734 13.4609 13.4619 13.4609h353.431c7.43359 0 13.4609 -6.02051 13.4609 -13.4609s-6.02734 -13.4609 -13.4619 -13.4609z" />
    <glyph glyph-name="greater" unicode="&#x3e;" horiz-adv-x="334" 
d="M5.95508 252.299l168.062 151.547l-168.062 151.548c-5.51465 4.96875 -5.95508 13.4873 -0.979492 19.0088c4.97559 5.50781 13.4941 5.95508 19.0156 0.972656l178.8 -161.231c0.461914 -0.390625 0.90332 -0.817383 1.32031 -1.2793
c2.32129 -2.5752 3.46387 -5.80273 3.46289 -9.01758c0.000976562 -3.21484 -1.1416 -6.44238 -3.46289 -9.01758c-0.407227 -0.452148 -0.838867 -0.870117 -1.29102 -1.25391l-178.829 -161.258c-2.57617 -2.32715 -5.80371 -3.4707 -9.01172 -3.4707
c-3.68066 0 -7.34863 1.49902 -10.0039 4.44336c-4.97559 5.52148 -4.53516 14.04 0.979492 19.0088z" />
    <glyph glyph-name="question" unicode="?" horiz-adv-x="389" 
d="M28.5664 121.391c-7.44043 0 -13.4619 6.02246 -13.4619 13.4629v148.011c0 7.44043 6.02051 13.4609 13.4609 13.4609c115.002 0 208.562 93.5605 208.562 208.575c0 115.002 -93.5605 208.562 -208.562 208.562c-7.44043 0 -13.4609 6.02051 -13.4609 13.4609
s6.02051 13.4609 13.4609 13.4609c129.844 0 235.485 -105.642 235.485 -235.485c0 -125.339 -98.418 -228.118 -222.023 -235.118v-134.93c0 -7.44043 -6.02051 -13.4609 -13.4609 -13.4609zM62.9219 40.7275c5.69043 -15.8047 -2.50879 -33.2295 -18.3135 -38.9199
s-33.2295 2.50879 -38.9199 18.3135s2.50879 33.2295 18.3135 38.9199s33.2295 -2.50879 38.9199 -18.3135z" />
    <glyph glyph-name="at" unicode="@" horiz-adv-x="874" 
d="M374.708 -9.03125c-206.616 0 -374.708 168.099 -374.708 374.715s168.092 374.701 374.708 374.701s374.708 -168.085 374.708 -374.701v-4.52246c0 -71.6064 -37.9521 -127.688 -86.4082 -127.688c-30.5068 0 -56.8535 22.2285 -72.1865 56.5654
c-31.4111 -90.5752 -117.597 -155.778 -218.723 -155.778c-127.602 0 -231.409 103.814 -231.409 231.423c0 127.596 103.808 231.41 231.409 231.41c88.5146 0 165.583 -49.9551 204.493 -123.149v30.6406c0 7.44043 6.02734 13.4609 13.4609 13.4609
c7.43457 0 13.4619 -6.02051 13.4619 -13.4609v-128.41c0 -0.691406 -0.0517578 -1.37012 -0.152344 -2.0332c0.101562 -2.80664 0.152344 -5.62598 0.152344 -8.45703c0 -1.2168 -0.00976562 -2.43066 -0.0283203 -3.64258
c0.0185547 -0.291016 0.0283203 -0.583984 0.0283203 -0.879883c0 -54.6221 27.2451 -100.765 59.4922 -100.765s59.4854 46.1426 59.4854 100.765v4.52246c0 191.761 -156.018 347.778 -347.785 347.778s-347.785 -156.018 -347.785 -347.778
c0 -191.774 156.018 -347.792 347.785 -347.792c65.6514 0 129.574 18.3779 184.866 53.1494c6.29688 3.93066 14.6182 2.06348 18.5615 -4.2334c3.95703 -6.29688 2.06445 -14.6055 -4.23242 -18.5625c-59.584 -37.4658 -128.469 -57.2773 -199.194 -57.2773z
M372.099 570.17c-112.754 0 -204.487 -91.7334 -204.487 -204.487c0 -112.767 91.7334 -204.5 204.487 -204.5c112.76 0 204.493 91.7334 204.493 204.5c0 112.754 -91.7334 204.487 -204.493 204.487z" />
    <glyph glyph-name="A" unicode="A" horiz-adv-x="640" 
d="M499.74 0c-5.63965 0 -10.8916 3.56738 -12.7715 9.20703l-88.7764 266.329c-0.121094 -0.0615234 -0.243164 -0.12207 -0.367188 -0.180664c-46.1553 -21.9277 -95.6562 -33.043 -147.123 -33.043c-47.2773 0 -92.9014 9.38086 -135.802 27.9092l-87.0049 -261.015
c-1.87988 -5.63965 -7.13184 -9.20898 -12.7715 -9.20898c-1.40625 0 -2.8457 0.223633 -4.25879 0.697266c-7.05273 2.35352 -10.8652 9.97852 -8.51172 17.0312l242.257 726.771c0.0664062 0.206055 0.137695 0.410156 0.213867 0.612305
c2.00391 5.37402 7.11328 8.76855 12.6094 8.75684c5.4043 0.0117188 10.4277 -3.26953 12.5039 -8.48828c0.115234 -0.289062 0.220703 -0.582031 0.316406 -0.878906l242.257 -726.771c2.35352 -7.05273 -1.45898 -14.6777 -8.51172 -17.0312
c-1.41309 -0.473633 -2.85254 -0.697266 -4.25879 -0.697266zM386.271 299.675c1.13965 0.543945 2.31738 0.912109 3.50293 1.11621l-132.342 397.024l-133.982 -401.947c40.1318 -17.6787 82.8926 -26.6338 127.252 -26.6338c47.4443 0 93.0547 10.2412 135.569 30.4404z
" />
    <glyph glyph-name="B" unicode="B" horiz-adv-x="504" 
d="M13.4619 0c-7.43359 0 -13.46 6.0293 -13.46 13.4639v726.923c0 7.43359 6.02734 13.4609 13.4609 13.4609h170.169c107.627 0 195.192 -87.5654 195.192 -195.192c0 -82.498 -51.4492 -153.209 -123.945 -181.731c72.4961 -28.5225 123.945 -99.2334 123.945 -181.731
c0 -107.627 -87.5654 -195.192 -195.192 -195.192h-163.346c-1.17871 -0 -2.32227 0.151367 -3.41211 0.435547c-1.08984 -0.28418 -2.2334 -0.435547 -3.41211 -0.435547zM183.632 726.925l-156.707 -0.000976562v-336.538h156.707c92.7852 0 168.27 75.4844 168.27 168.27
s-75.4844 168.27 -168.27 168.27zM6.82422 376.924c0 5.24023 2.99219 9.78125 7.36426 12.0049l-0.727539 1.45605c-7.43359 0 -13.4609 -6.02734 -13.4609 -13.4609s6.02734 -13.4609 13.4619 -13.4609h6.82324c-7.43359 0 -13.4609 6.02734 -13.4609 13.4609z
M26.9219 363.462v-336.539h156.707c92.7852 0 168.27 75.4844 168.27 168.27s-75.4844 168.27 -168.27 168.27h-156.707z" />
    <glyph glyph-name="C" unicode="C" horiz-adv-x="790" 
d="M376.923 0c-207.839 0 -376.922 169.086 -376.922 376.925s169.084 376.923 376.923 376.923c108.067 0 211.106 -46.5039 282.68 -127.595c4.92285 -5.57422 4.39062 -14.0801 -1.18359 -18.9971c-5.57422 -4.92285 -14.0801 -4.39062 -18.9971 1.18359
c-66.4727 75.3008 -162.149 118.485 -262.5 118.485c-192.99 0 -350 -157.01 -350 -350s157.01 -350 350 -350c100.356 0 196.04 43.1914 262.513 118.498c4.90332 5.58008 13.4219 6.1123 18.9961 1.18262c5.57422 -4.91699 6.10645 -13.4229 1.18359 -18.9971
c-71.5801 -81.0977 -174.619 -127.608 -282.692 -127.608z" />
    <glyph glyph-name="D" unicode="D" 
d="M148.077 0h-121.153c-2.45215 -0 -4.75098 0.655273 -6.73145 1.80078c-1.98047 -1.14551 -4.2793 -1.80078 -6.73145 -1.80078c-7.43359 -0 -13.4609 6.02734 -13.4609 13.4619v726.923c-0 7.43457 6.02734 13.4619 13.4619 13.4619
c1.16211 0 2.29004 -0.147461 3.36523 -0.424805c1.0752 0.277344 2.20312 0.424805 3.36523 0.424805h107.692c1.16211 0 2.29004 -0.147461 3.36523 -0.424805c1.0752 0.277344 2.20312 0.424805 3.36523 0.424805c207.839 0 376.923 -169.084 376.923 -376.923
c0 -202.289 -160.175 -367.866 -360.359 -376.564c-0.996094 -0.235352 -2.03418 -0.359375 -3.10156 -0.359375zM26.9238 726.923v-700h107.692c192.99 0 350 157.01 350 350s-157.01 350 -350 350c-1.16211 0 -2.29004 0.147461 -3.36523 0.424805
c-1.0752 -0.277344 -2.20312 -0.424805 -3.36523 -0.424805h-100.962z" />
    <glyph glyph-name="E" unicode="E" horiz-adv-x="515" 
d="M376.923 0l-363.461 -0.00195312c-7.44043 0 -13.4609 6.02734 -13.4609 13.4619v726.923c0 7.43359 6.02051 13.4609 13.4609 13.4609c0.226562 0 0.452148 -0.00585938 0.676758 -0.0166016c0.224609 0.0107422 0.450195 0.0166016 0.676758 0.0166016h362.107
c7.44043 0 13.4609 -6.02734 13.4609 -13.4609c0 -7.43457 -6.02051 -13.4619 -13.4609 -13.4619h-350v-336.538h350c7.44043 0 13.4609 -6.02734 13.4609 -13.4609c0 -7.43457 -6.02051 -13.4619 -13.4609 -13.4619h-350v-336.538h350
c7.44043 0 13.4609 -6.02734 13.4609 -13.4609s-6.02051 -13.4609 -13.4609 -13.4609z" />
    <glyph glyph-name="F" unicode="F" horiz-adv-x="515" 
d="M376.923 363.462l-350 -0.000976562v-350c0 -7.43359 -6.02051 -13.4609 -13.4609 -13.4609s-13.4609 6.02734 -13.4609 13.4619v726.923c0 7.43359 6.02051 13.4609 13.4609 13.4609c0.226562 0 0.452148 -0.00585938 0.676758 -0.0166016
c0.224609 0.0107422 0.450195 0.0166016 0.676758 0.0166016h362.107c7.44043 0 13.4609 -6.02734 13.4609 -13.4609c0 -7.43457 -6.02051 -13.4619 -13.4609 -13.4619h-350v-336.538h350c7.44043 0 13.4609 -6.02734 13.4609 -13.4609
c0 -7.43457 -6.02051 -13.4619 -13.4609 -13.4619z" />
    <glyph glyph-name="G" unicode="G" horiz-adv-x="879" 
d="M376.923 0c-207.839 0 -376.923 169.084 -376.923 376.923s169.084 376.923 376.923 376.923h29.5391c7.44043 0 13.4609 -6.02734 13.4609 -13.4609s-6.02051 -13.4609 -13.4609 -13.4609h-29.5391c-192.997 0 -350 -157.01 -350 -350s157.003 -350 350 -350
c188.489 0 342.646 149.762 349.744 336.539h-349.744c-7.44043 0 -13.4609 6.02734 -13.4609 13.4609s6.02051 13.4609 13.4609 13.4609h363.462c7.44043 0 13.4609 -6.02734 13.4609 -13.4619c0 -207.839 -169.084 -376.923 -376.923 -376.923z" />
    <glyph glyph-name="H" unicode="H" horiz-adv-x="524" 
d="M13.4619 0c-7.44043 0 -13.4609 6.02734 -13.4609 13.4619v726.923c0 7.43359 6.02051 13.4609 13.4609 13.4609s13.4609 -6.02734 13.4609 -13.4609v-343.322h344.952v343.322c0 7.43359 6.02051 13.4609 13.4609 13.4609s13.4609 -6.02734 13.4609 -13.4619v-723.558
c0 -7.43359 -6.02051 -13.4609 -13.4609 -13.4609s-13.4609 6.02734 -13.4609 13.4609v353.312h-344.952v-356.678c0 -7.43359 -6.02051 -13.4609 -13.4609 -13.4609z" />
    <glyph glyph-name="I" unicode="I" horiz-adv-x="518" 
d="M379.349 0h-365.886c-7.43359 -0 -13.4609 6.02734 -13.4609 13.4609s6.02734 13.4609 13.4609 13.4609h169.479v700h-169.479c-7.43359 0 -13.4609 6.02734 -13.4609 13.4609s6.02734 13.4609 13.4609 13.4609h365.887c7.43359 0 13.4609 -6.02734 13.4609 -13.4609
s-6.02734 -13.4609 -13.4609 -13.4609h-169.485v-700h169.485c7.43359 0 13.4609 -6.02734 13.4609 -13.4609s-6.02734 -13.4609 -13.4619 -13.4609z" />
    <glyph glyph-name="J" unicode="J" horiz-adv-x="515" 
d="M142.346 0c-78.4883 0 -142.346 63.8564 -142.346 142.352c-0 7.43359 6.02734 13.4609 13.4609 13.4609c7.43457 0 13.4619 -6.02734 13.4619 -13.4609c0 -63.6465 51.7754 -115.429 115.422 -115.429s115.429 51.7822 115.429 115.429
c0 0.359375 0.0136719 0.71582 0.0410156 1.06836c-0.0273438 0.352539 -0.0410156 0.708984 -0.0410156 1.06836v581.652h-244.312c-7.43359 0 -13.4609 6.02734 -13.4609 13.4609s6.02734 13.4609 13.4619 13.4609h363.067c7.43359 0 13.4609 -6.02734 13.4609 -13.4609
s-6.02734 -13.4609 -13.4609 -13.4609h-91.832v-581.652c0 -0.359375 -0.0136719 -0.71582 -0.0410156 -1.06836c0.0273438 -0.352539 0.0410156 -0.708984 0.0410156 -1.06836c0 -78.4951 -63.8564 -142.352 -142.352 -142.352z" />
    <glyph glyph-name="K" unicode="K" horiz-adv-x="519" 
d="M13.4619 0c-7.43359 0 -13.4619 6.0293 -13.4619 13.4639v726.923c-0 7.43359 6.02734 13.4609 13.4609 13.4609s13.4609 -6.02734 13.4609 -13.4619v-351.391l342.461 359.002c5.14648 5.37012 13.6523 5.56055 19.0361 0.446289
c5.37695 -5.13379 5.58105 -13.6523 0.447266 -19.0352l-339.417 -355.811l337.688 -350.802c5.16016 -5.35742 4.99609 -13.876 -0.361328 -19.0293c-2.60938 -2.51758 -5.97461 -3.7666 -9.33301 -3.7666c-3.5293 -0 -7.05273 1.37988 -9.69531 4.12695l-340.824 354.055
v-344.721c0 -7.43359 -6.02734 -13.4609 -13.4619 -13.4609z" />
    <glyph glyph-name="L" unicode="L" horiz-adv-x="588" 
d="M449.621 0h-436.158c-7.44043 -0 -13.4609 6.02734 -13.4609 13.4619v726.923c0 7.43359 6.02051 13.4609 13.4609 13.4609s13.4609 -6.02734 13.4609 -13.4619v-713.462h422.697c7.44043 0 13.4609 -6.02734 13.4609 -13.4609s-6.02051 -13.4609 -13.4609 -13.4609z" />
    <glyph glyph-name="M" unicode="M" horiz-adv-x="733" 
d="M607.669 744.334c0.388672 -1.24609 0.75293 -2.50391 0.765625 -3.83008c0 -0.0410156 0.0234375 -0.0751953 0.0234375 -0.116211v-726.923c0 -7.43359 -6.02051 -13.4609 -13.4609 -13.4609s-13.4609 6.02734 -13.4609 13.4619v657.014l-264.813 -662.017
c-0.0253906 -0.0644531 -0.0751953 -0.110352 -0.101562 -0.173828c-0.0986328 -0.237305 -0.276367 -0.425781 -0.388672 -0.657227c-0.598633 -1.22852 -1.33887 -2.3252 -2.2334 -3.28223c-0.313477 -0.338867 -0.665039 -0.613281 -1.01562 -0.919922
c-0.935547 -0.814453 -1.94629 -1.47754 -3.05762 -2.00293c-0.261719 -0.125 -0.435547 -0.355469 -0.708984 -0.464844c-0.152344 -0.0605469 -0.313477 -0.0351562 -0.46582 -0.0898438c-1.45215 -0.524414 -2.96289 -0.875977 -4.5293 -0.875977
s-3.07715 0.351562 -4.5293 0.875977c-0.152344 0.0546875 -0.313477 0.0292969 -0.46582 0.0898438c-0.273438 0.109375 -0.447266 0.339844 -0.708984 0.464844c-1.11035 0.525391 -2.12109 1.18848 -3.05664 2.00293
c-0.350586 0.306641 -0.702148 0.581055 -1.01562 0.919922c-0.894531 0.957031 -1.63477 2.05371 -2.23242 3.28223c-0.112305 0.231445 -0.290039 0.419922 -0.388672 0.657227c-0.0263672 0.0634766 -0.0761719 0.109375 -0.101562 0.173828l-264.801 662.014v-657.012
c0 -7.43359 -6.02051 -13.4609 -13.4609 -13.4609s-13.4609 6.02734 -13.4609 13.4619v726.923c-0 0.0410156 0.0234375 0.0742188 0.0234375 0.115234c0.0126953 1.34082 0.382812 2.61133 0.780273 3.87012c0.131836 0.417969 0.108398 0.893555 0.279297 1.29395
c0.261719 0.612305 0.763672 1.08301 1.11328 1.65137c0.556641 0.901367 1.02734 1.86426 1.77441 2.60742c0.259766 0.258789 0.643555 0.385742 0.925781 0.624023c1.05859 0.891602 2.16113 1.7334 3.46094 2.26758
c0.0410156 0.0175781 0.0654297 0.0546875 0.107422 0.0712891c0.818359 0.328125 1.66504 0.297852 2.50195 0.456055c0.836914 0.163086 1.6084 0.503906 2.49316 0.503906c0.0449219 0 0.0810547 -0.0244141 0.125977 -0.0253906
c1.12305 -0.0126953 2.1748 -0.370117 3.24805 -0.655273c2.34082 -0.621094 4.5127 -1.62793 6.16797 -3.29297c0.219727 -0.219727 0.322266 -0.548828 0.527344 -0.78418c0.94043 -1.08789 1.80664 -2.24414 2.3623 -3.59375
c0.0175781 -0.0410156 0.0546875 -0.0654297 0.0712891 -0.107422l278.262 -695.668l278.275 695.668c0.0175781 0.0419922 0.0556641 0.0673828 0.0732422 0.109375c0.549805 1.33691 1.40918 2.47754 2.33594 3.55762
c0.213867 0.24707 0.323242 0.59082 0.553711 0.821289c1.6084 1.61719 3.70312 2.61426 5.96094 3.25c1.13867 0.321289 2.26465 0.686523 3.46094 0.699219c0.0419922 0 0.0761719 0.0234375 0.118164 0.0234375c0.857422 0 1.60352 -0.333984 2.41504 -0.486328
c0.864258 -0.158203 1.7373 -0.133789 2.58105 -0.472656c0.0410156 -0.0166016 0.0664062 -0.0537109 0.107422 -0.0712891c1.30273 -0.535156 2.40723 -1.37793 3.4668 -2.27148c0.280273 -0.236328 0.661133 -0.363281 0.918945 -0.620117
c0.769531 -0.765625 1.26074 -1.75391 1.82812 -2.68652c0.329102 -0.541992 0.810547 -0.988281 1.05957 -1.57129c0.176758 -0.413086 0.154297 -0.905273 0.289062 -1.33789z" />
    <glyph glyph-name="N" unicode="N" horiz-adv-x="592" 
d="M451.54 0c-0.00195312 0 -0.00292969 -0.00195312 -0.00488281 -0.00195312h-0.00585938c-2.62793 0 -5.07812 0.751953 -7.14941 2.05176c-1.29297 0.808594 -2.46191 1.84668 -3.44141 3.09766c-0.405273 0.515625 -0.773438 1.06152 -1.10059 1.63379
l-411.006 685.002v-678.322c0 -7.43359 -6.02051 -13.4609 -13.4609 -13.4609s-13.4609 6.02734 -13.4609 13.4619v726.666c-0.00976562 0.558594 0.0146484 1.11523 0.0732422 1.66797c0.199219 1.91211 0.798828 3.70605 1.71289 5.29492
c0.833008 1.4541 1.94727 2.76758 3.32031 3.85059c2.29492 1.81836 5.19727 2.9043 8.35547 2.9043c3.22266 0 6.17871 -1.13086 8.49512 -3.0166c0.59375 -0.482422 1.15137 -1.02051 1.66406 -1.61133c0.577148 -0.664062 1.09082 -1.38477 1.53027 -2.15332
l411.006 -685.002v678.322c0 7.43359 6.02051 13.4609 13.4609 13.4609s13.4609 -6.02734 13.4609 -13.4619v-726.666c0.00976562 -0.558594 -0.0146484 -1.11523 -0.0732422 -1.66797c-0.199219 -1.91211 -0.798828 -3.70605 -1.71289 -5.29492
c-0.833008 -1.4541 -1.94727 -2.76758 -3.32031 -3.85059c-1.93066 -1.5293 -4.29102 -2.54102 -6.87207 -2.82422c-0.490234 -0.0537109 -0.981445 -0.0800781 -1.4707 -0.0800781z" />
    <glyph glyph-name="O" unicode="O" horiz-adv-x="879" 
d="M376.923 726.923c-192.997 0 -350 -157.01 -350 -350s157.003 -350 350 -350s350 157.01 350 350s-157.003 350 -350 350zM376.923 -0c-207.839 0 -376.923 169.084 -376.923 376.923s169.084 376.923 376.923 376.923s376.923 -169.084 376.923 -376.923
s-169.084 -376.923 -376.923 -376.923z" />
    <glyph glyph-name="P" unicode="P" 
d="M13.4619 0c-7.44043 0 -13.4629 6.02539 -13.4629 13.46v740.385h255.77c141.03 0 255.769 -114.738 255.769 -255.769s-114.738 -255.769 -255.769 -255.769c-100.027 0 -186.828 57.7188 -228.846 141.6v-370.446c0 -7.43359 -6.02051 -13.4609 -13.4609 -13.4609z
M26.9219 498.075c0 -126.188 102.657 -228.846 228.846 -228.846s228.846 102.657 228.846 228.846s-102.657 228.846 -228.846 228.846h-228.846v-228.846z" />
    <glyph glyph-name="Q" unicode="Q" horiz-adv-x="887" 
d="M746.583 0c-2.80664 0 -5.63965 0.874023 -8.06543 2.69434l-116.625 87.4697c-65.7578 -54.3936 -150.064 -87.1152 -241.868 -87.1152c-209.548 0 -380.025 170.484 -380.025 380.032s170.478 380.025 380.025 380.025s380.032 -170.478 380.032 -380.025
c0 -107.887 -45.1914 -205.419 -117.639 -274.66l112.256 -84.1934c5.94824 -4.45605 7.15137 -12.8955 2.68848 -18.8438c-2.64258 -3.52344 -6.68457 -5.38379 -10.7793 -5.38379zM380.025 29.9727c82.9658 0 159.341 28.7617 219.677 76.8369l-106.738 80.0557
c-5.94824 4.45605 -7.15137 12.8955 -2.68848 18.8438c4.46289 5.94238 12.8896 7.16504 18.8447 2.68848l111.455 -83.5928c69.2139 64.5059 112.56 156.425 112.56 258.277c0 194.699 -158.403 353.103 -353.109 353.103c-194.699 0 -353.103 -158.403 -353.103 -353.103
c0 -194.706 158.403 -353.109 353.103 -353.109z" />
    <glyph glyph-name="R" unicode="R" horiz-adv-x="640" 
d="M13.5469 0c-7.43359 0 -13.4609 6.02539 -13.4609 13.46v726.923c0 7.43457 6.02734 13.4619 13.4619 13.4619c0.866211 0 1.71289 -0.0820312 2.5332 -0.238281c0.820312 0.15625 1.66699 0.238281 2.5332 0.238281h238.081c141.497 0 256.61 -115.113 256.61 -256.61
s-115.113 -256.61 -256.61 -256.61c-14.2471 0 -28.2275 1.16699 -41.8496 3.41016l293.077 -219.808c5.94824 -4.45605 7.15137 -12.8955 2.68848 -18.8438c-2.64258 -3.52344 -6.68457 -5.38379 -10.7793 -5.38379c-2.80664 0 -5.63965 0.874023 -8.06543 2.69434
l-362.423 271.817c-18.3145 10.5127 -35.2158 23.2188 -50.3438 37.7578l-51.9922 38.9941v-337.802c0 -7.43359 -6.02734 -13.4609 -13.4609 -13.4609zM256.696 726.921h-229.688v-229.688c0 -64.3809 26.626 -122.66 69.4443 -164.405l47.6934 -35.7695
c33.2803 -18.7861 71.6865 -29.5127 112.551 -29.5127c126.648 0 229.688 103.039 229.688 229.688s-103.039 229.688 -229.688 229.688z" />
    <glyph glyph-name="S" unicode="S" horiz-adv-x="515" 
d="M195.192 0c-107.627 0 -195.192 87.5664 -195.192 195.193c-0 7.43359 6.02734 13.4609 13.4609 13.4609c7.43457 0 13.4619 -6.02734 13.4619 -13.4619c0 -92.7852 75.4844 -168.27 168.27 -168.27s168.27 75.4844 168.27 168.27s-75.4844 168.27 -168.27 168.27
c-107.627 0 -195.192 87.5654 -195.192 195.192s87.5654 195.192 195.192 195.192s195.192 -87.5654 195.192 -195.192c0 -7.43359 -6.02734 -13.4609 -13.4609 -13.4609c-7.43457 0 -13.4619 6.02734 -13.4619 13.4609c0 92.7852 -75.4844 168.27 -168.27 168.27
s-168.27 -75.4844 -168.27 -168.27s75.4844 -168.27 168.27 -168.27c107.627 0 195.192 -87.5654 195.192 -195.192s-87.5654 -195.192 -195.192 -195.192z" />
    <glyph glyph-name="T" unicode="T" horiz-adv-x="514" 
d="M375.582 726.923h-166.364v-713.462c0 -7.43359 -6.02051 -13.4609 -13.4609 -13.4609s-13.4609 6.02734 -13.4609 13.4619v713.462h-168.835c-7.44043 0 -13.4609 6.02734 -13.4609 13.4609s6.02051 13.4609 13.4609 13.4609h362.121
c7.42773 0 13.4355 -6.02734 13.4355 -13.4609c0 -7.43457 -6.00781 -13.4619 -13.4355 -13.4619z" />
    <glyph glyph-name="U" unicode="U" horiz-adv-x="511" 
d="M192.997 0c-106.364 0 -192.89 86.5352 -192.89 192.894l-0.105469 191.873h0.105469v365.479c0 7.43359 6.02051 13.4609 13.4609 13.4609s13.4609 -6.02734 13.4609 -13.4619v-557.346c0 -91.5225 74.459 -165.975 165.969 -165.975s165.969 74.4521 165.969 165.969
v557.353c0 7.43359 6.02051 13.4609 13.4609 13.4609s13.4609 -6.02734 13.4609 -13.4619v-557.353c0 -106.358 -86.5273 -192.893 -192.892 -192.893z" />
    <glyph glyph-name="V" unicode="V" horiz-adv-x="730" 
d="M594.674 752.933c6.92773 -2.69531 10.3467 -10.502 7.65137 -17.4297l-283.271 -726.923c-0.0302734 -0.0771484 -0.0898438 -0.131836 -0.121094 -0.208008c-0.135742 -0.331055 -0.371094 -0.597656 -0.533203 -0.917969
c-0.572266 -1.125 -1.24219 -2.15137 -2.06738 -3.04395c-0.334961 -0.365234 -0.707031 -0.663086 -1.08496 -0.992188c-0.918945 -0.796875 -1.90918 -1.44531 -2.99707 -1.96582c-0.270508 -0.129883 -0.449219 -0.365234 -0.731445 -0.478516
c-0.152344 -0.0605469 -0.310547 -0.0351562 -0.462891 -0.0898438c-1.45605 -0.52832 -2.97168 -0.882812 -4.54492 -0.882812c-1.54492 0 -3.03516 0.337891 -4.4668 0.84668c-0.139648 0.0488281 -0.28418 0.0253906 -0.422852 0.0800781
c-0.270508 0.105469 -0.442383 0.331055 -0.702148 0.451172c-1.11719 0.516602 -2.1377 1.1709 -3.08301 1.97949c-0.367188 0.31543 -0.727539 0.602539 -1.05566 0.952148c-0.862305 0.914062 -1.57324 1.96387 -2.16699 3.12988
c-0.138672 0.275391 -0.34375 0.500977 -0.463867 0.78418c-0.0371094 0.0859375 -0.104492 0.147461 -0.139648 0.235352l-291.25 726.923c-2.76074 6.90137 0.591797 14.7363 7.49316 17.5039c6.88867 2.76758 14.7373 -0.578125 17.5107 -7.48633l278.578 -695.295
l270.899 695.177c2.70801 6.92773 10.543 10.3457 17.4316 7.65039z" />
    <glyph glyph-name="W" unicode="W" horiz-adv-x="896" 
d="M199.426 0c-109.967 0 -199.421 89.4648 -199.421 199.432v551.68c0 7.43359 6.02051 13.4609 13.4609 13.4609s13.4609 -6.02734 13.4609 -13.4609v-551.68c0 -95.125 77.3906 -172.509 172.502 -172.509c95.125 0 172.516 77.3838 172.516 172.509v551.68
c0 7.43359 6.02051 13.4609 13.4609 13.4609s13.4609 -6.02734 13.4609 -13.4609v-551.68c0 -95.125 77.3906 -172.509 172.502 -172.509c95.125 0 172.516 77.3838 172.516 172.509v551.68c0 7.43359 6.02051 13.4609 13.4609 13.4609s13.4609 -6.02734 13.4609 -13.4609
v-551.68c0 -109.967 -89.4717 -199.432 -199.438 -199.432c-84.5742 0 -157.019 52.9189 -185.965 127.384c-28.9502 -74.4648 -101.402 -127.384 -185.977 -127.384z" />
    <glyph glyph-name="X" unicode="X" horiz-adv-x="675" 
d="M15.2627 0c-2.70801 0 -5.44141 0.81543 -7.80762 2.50488c-6.04688 4.3252 -7.45312 12.7324 -3.12793 18.7793l254.067 355.696l-249.939 355.662c-4.27246 6.08691 -2.7998 14.4805 3.27344 18.7598c6.08691 4.26562 14.4736 2.80664 18.7588 -3.27344
l244.499 -347.92l248.569 347.998c4.3252 6.04688 12.7383 7.43359 18.7725 3.13477c6.04688 -4.3252 7.45312 -12.7324 3.12793 -18.7793l-254.067 -355.696l249.939 -355.662c4.27246 -6.08691 2.7998 -14.4805 -3.27344 -18.7598
c-2.35352 -1.64941 -5.06152 -2.44434 -7.73047 -2.44434c-4.2334 -0 -8.40039 1.99121 -11.0293 5.71777l-244.499 347.92l-248.569 -347.998c-2.62891 -3.68066 -6.75684 -5.63965 -10.9639 -5.63965z" />
    <glyph glyph-name="Y" unicode="Y" horiz-adv-x="475" 
d="M175 0c-7.43359 0 -13.459 6.02734 -13.459 13.4619v309.615h-13.4619c-81.6504 0 -148.077 66.4268 -148.077 148.077v269.23c0 7.43359 6.02734 13.4609 13.4609 13.4609s13.4609 -6.02734 13.4609 -13.4609v-269.23c0 -66.8018 54.3525 -121.154 121.154 -121.154
h53.8457c66.8018 0 121.154 54.3525 121.154 121.154v269.23c0 7.43359 6.02734 13.4609 13.4609 13.4609s13.4609 -6.02734 13.4609 -13.4619v-269.23c0 -81.6504 -66.4268 -148.077 -148.077 -148.077h-13.4619v-309.615c0 -7.43359 -6.02734 -13.4609 -13.4609 -13.4609z
" />
    <glyph glyph-name="Z" unicode="Z" horiz-adv-x="631" 
d="M36.1191 179.068c80.7236 78.874 319.641 313.66 327.198 321.094c5.20898 5.64453 65.916 71.3926 87.7754 93.6689c28.2178 28.7441 28.2178 44.2959 28.2178 60.7617c0 39.208 -20.7578 72.3291 -45.3281 72.3291h-420.521
c-7.43359 0 -13.4609 6.02734 -13.4609 13.4609c-0 7.43457 6.02734 13.4619 13.4619 13.4619h420.521c40.5156 0 72.25 -43.5986 72.25 -99.252c0 -23.5381 -2.70117 -45.7744 -35.9277 -79.6191c-22.0654 -22.4932 -86.8232 -92.6533 -87.4736 -93.3633
c-0.149414 -0.161133 -0.301758 -0.318359 -0.457031 -0.470703l0.00292969 -0.00292969s-245.41 -241.171 -327.448 -321.329c-28.0078 -27.3633 -28.0078 -42.7441 -28.0078 -60.5566c0 -39.208 20.7578 -72.3291 45.3281 -72.3291h420.521
c7.43359 0 13.4609 -6.02734 13.4609 -13.4609s-6.02734 -13.4609 -13.4609 -13.4609h-420.521c-40.5156 -0 -72.25 43.5986 -72.25 99.252c0 20.8691 0 44.5322 36.1191 79.8164z" />
    <glyph glyph-name="bracketleft" unicode="[" horiz-adv-x="334" 
d="M195.192 713.462l-168.27 -0.000976562v-700h168.27c7.44043 0 13.4609 -6.02051 13.4609 -13.4609s-6.02051 -13.4609 -13.4609 -13.4609h-181.73c-7.44043 0 -13.4609 6.02051 -13.4609 13.4609v726.923c0 7.44043 6.02051 13.4609 13.4609 13.4609h181.73
c7.44043 0 13.4609 -6.02051 13.4609 -13.4609s-6.02051 -13.4609 -13.4609 -13.4609z" />
    <glyph glyph-name="backslash" unicode="\" horiz-adv-x="270" 
d="M130.554 -13.4619c-6.49414 0 -12.2119 4.71973 -13.2705 11.332l-116.105 726.923c-1.17676 7.34863 3.8252 14.25 11.167 15.4199c7.26953 1.27539 14.2373 -3.8252 15.4141 -11.1611l116.105 -726.923c1.17676 -7.34863 -3.8252 -14.25 -11.167 -15.4199
c-0.716797 -0.118164 -1.43359 -0.170898 -2.14355 -0.170898z" />
    <glyph glyph-name="bracketright" unicode="]" horiz-adv-x="334" 
d="M13.4619 13.4619l168.27 0.000976562v700h-168.27c-7.44043 0 -13.4609 6.02051 -13.4609 13.4609s6.02051 13.4609 13.4609 13.4609h181.73c7.44043 0 13.4609 -6.02051 13.4609 -13.4609v-726.923c0 -7.44043 -6.02051 -13.4609 -13.4609 -13.4609h-181.73
c-7.44043 0 -13.4609 6.02051 -13.4609 13.4609s6.02051 13.4609 13.4609 13.4609z" />
    <glyph glyph-name="asciicircum" unicode="^" horiz-adv-x="478" 
d="M14.9736 551.923c-3.2207 0 -6.44434 1.14453 -9.02051 3.47168c-5.52148 4.96875 -5.95508 13.4873 -0.972656 19.0088l161.329 178.909c0.21582 0.249023 0.441406 0.491211 0.677734 0.726562c0.865234 0.869141 1.82324 1.59668 2.84473 2.18066
c2.06738 1.18652 4.37305 1.77246 6.67383 1.77148c2.53223 0.00195312 5.07227 -0.708008 7.2959 -2.14746c0.720703 -0.46582 1.40527 -1.00586 2.04199 -1.62012c0.305664 -0.292969 0.594727 -0.597656 0.867188 -0.912109l161.329 -178.909
c4.98242 -5.52148 4.54883 -14.04 -0.972656 -19.0088c-2.57617 -2.32715 -5.79688 -3.4707 -9.01758 -3.4707c-3.68066 0 -7.33496 1.49902 -9.99023 4.44336l-151.548 168.062l-151.548 -168.062c-2.65527 -2.94434 -6.30957 -4.44336 -9.99023 -4.44336z" />
    <glyph glyph-name="underscore" unicode="_" horiz-adv-x="475" 
d="M336.538 -13.4619h-323.077c-7.43359 0 -13.4609 6.02051 -13.4609 13.4609s6.02734 13.4609 13.4619 13.4609h323.077c7.43359 0 13.4609 -6.02051 13.4609 -13.4609s-6.02734 -13.4609 -13.4619 -13.4609z" />
    <glyph glyph-name="grave" unicode="`" horiz-adv-x="599" 
d="M364.921 -13.4619c-3.95703 0 -7.85938 1.71875 -10.5283 5.04492l-243.451 304.331c-2.1543 2.69824 -3.10449 5.96875 -2.92383 9.16406c0.124023 2.26953 0.808594 4.3877 1.91797 6.21973c0.796875 1.32031 1.83594 2.52539 3.1084 3.54688
c2.60254 2.08008 5.73047 3.03906 8.80957 2.94531c80.2705 0.158203 149.474 48.3701 180.315 117.341h-288.707c-7.44043 0 -13.4609 6.02051 -13.4609 13.4609s6.02051 13.4609 13.4609 13.4609h298.461c4.7998 17.0439 7.36816 35.0127 7.36816 53.5703
c0 109.086 -88.749 197.835 -197.835 197.835h-107.995c-7.44043 0 -13.4609 6.02051 -13.4609 13.4609s6.02051 13.4609 13.4609 13.4609h447.386c7.44043 0 13.4609 -6.02051 13.4609 -13.4609s-6.02051 -13.4609 -13.4609 -13.4609h-232.799
c70.3027 -38.0322 118.165 -112.451 118.165 -197.834c0 -18.4541 -2.23633 -36.3965 -6.45117 -53.5703h121.085c7.44043 0 13.4609 -6.02051 13.4609 -13.4609s-6.02051 -13.4609 -13.4609 -13.4609h-129.533c-29.3701 -76.3086 -99.2256 -132.688 -183.108 -142.681
l227.219 -284.038c4.64062 -5.81055 3.69434 -14.2764 -2.10352 -18.9297c-2.48438 -1.98535 -5.45508 -2.94531 -8.39941 -2.94531z" />
    <glyph glyph-name="a" unicode="a" horiz-adv-x="628" 
d="M489.104 -13.4619c-7.43359 0 -13.46 6.03027 -13.46 13.4639v136.242c-39.3135 -88.2451 -126.101 -149.704 -226.604 -149.704c-137.323 0 -249.038 114.738 -249.038 255.769s111.715 255.769 249.038 255.769c100.504 0 187.291 -61.459 226.604 -149.704v136.242
c0 7.43359 6.02734 13.4609 13.4609 13.4609s13.4609 -6.02734 13.4609 -13.4609v-484.615c0 -7.43457 -6.02734 -13.4619 -13.4619 -13.4619zM249.039 471.156c-122.475 0 -222.115 -102.657 -222.115 -228.846s99.6406 -228.846 222.115 -228.846
s222.115 102.657 222.115 228.846s-99.6406 228.846 -222.115 228.846z" />
    <glyph glyph-name="b" unicode="b" 
d="M13.4619 -13.4619c-7.43457 0 -13.459 6.02832 -13.459 13.4619l0.0175781 242.3c-0.0117188 1.00488 -0.0175781 2.01074 -0.0175781 3.01758c0 1.01953 0.00585938 2.03809 0.0175781 3.05469l0.0341797 478.55c0 7.43359 6.02734 13.4609 13.4609 13.4609
s13.4609 -6.02734 13.4609 -13.4609l-0.0263672 -367.384c42.0273 83.8525 128.813 141.548 228.82 141.548c141.03 0 255.769 -114.738 255.769 -255.769s-114.738 -255.769 -255.769 -255.769c-100.02 0 -186.815 57.71 -228.837 141.581l-0.00976562 -131.13
c0 -7.43457 -6.02734 -13.4619 -13.4619 -13.4619zM255.772 474.165c-125.225 0 -227.276 -101.094 -228.829 -225.956v-5.74512c1.53516 -124.878 103.594 -225.99 228.829 -225.99c126.188 0 228.846 102.657 228.846 228.846s-102.657 228.846 -228.846 228.846z" />
    <glyph glyph-name="c" unicode="c" horiz-adv-x="578" 
d="M255.77 -13.4619c-141.03 0 -255.767 114.74 -255.767 255.771s114.738 255.769 255.769 255.769c73.335 0 143.252 -31.5566 191.813 -86.5791c4.92285 -5.57422 4.39062 -14.0801 -1.18359 -18.9971c-5.57422 -4.92969 -14.0928 -4.39062 -18.9961 1.18359
c-43.4609 49.2314 -106.017 77.4688 -171.635 77.4688c-126.188 0 -228.846 -102.657 -228.846 -228.846s102.657 -228.846 228.846 -228.846c65.625 0 128.187 28.2373 171.634 77.4756c4.91699 5.56738 13.4355 6.09277 19.0029 1.18945
c5.57422 -4.92285 6.10645 -13.4287 1.18945 -19.0029c-48.5684 -55.0293 -118.485 -86.5859 -191.827 -86.5859z" />
    <glyph glyph-name="d" unicode="d" 
d="M498.077 -13.4619c-7.42773 0 -13.4609 6.03027 -13.4609 13.4639l-0.00976562 131.13c-42.0215 -83.8711 -128.817 -141.581 -228.837 -141.581c-141.03 0 -255.769 114.738 -255.769 255.769s114.738 255.769 255.769 255.769
c100.007 0 186.793 -57.6953 228.82 -141.548l-0.0263672 367.384c0 7.43359 6.02051 13.4609 13.4609 13.4609c7.42773 0 13.4619 -6.02734 13.4619 -13.4619l0.0341797 -478.55c0.0117188 -1.0166 0.0175781 -2.03516 0.0175781 -3.05469
c0 -1.00684 -0.00585938 -2.0127 -0.0175781 -3.01758l0.0175781 -242.301c0 -7.43457 -6.02051 -13.4619 -13.4609 -13.4619zM255.771 16.4746c125.235 0 227.293 101.111 228.828 225.989v5.74512c-1.55273 124.863 -103.604 225.957 -228.828 225.957
c-126.188 0 -228.846 -102.657 -228.846 -228.846s102.657 -228.846 228.846 -228.846z" />
    <glyph glyph-name="e" unicode="e" 
d="M255.77 -13.4619c-141.03 0 -255.77 114.738 -255.77 255.769s114.738 255.769 255.769 255.769s255.769 -114.738 255.769 -255.769c0 -7.43457 -6.02051 -13.4619 -13.4609 -13.4619h-470.763c6.99121 -119.947 106.785 -215.385 228.455 -215.385
c81.4531 0 157.411 43.8486 198.243 114.43c3.69434 6.44824 11.9102 8.65039 18.3916 4.91699c6.42871 -3.72656 8.6377 -11.9561 4.9043 -18.3906c-45.6172 -78.876 -130.515 -127.878 -221.538 -127.878zM27.3135 255.769h456.91
c-6.99121 119.947 -106.785 215.385 -228.455 215.385s-221.464 -95.4375 -228.455 -215.385z" />
    <glyph glyph-name="f" unicode="f" horiz-adv-x="344" 
d="M63.9033 509.436c0 0.476562 0.0234375 0.947266 0.0712891 1.41113c-0.0478516 0.463867 -0.0722656 0.93457 -0.0722656 1.41113c0 77.9561 63.416 141.379 141.372 141.379c7.44043 0 13.4609 -6.02734 13.4609 -13.4609
c0 -7.43457 -6.02051 -13.4619 -13.4609 -13.4619c-63.1143 0 -114.449 -51.3418 -114.449 -114.456c0 -0.476562 -0.0244141 -0.947266 -0.0722656 -1.41113c0.0478516 -0.463867 0.0722656 -0.93457 0.0722656 -1.41113v-47.8516h114.686
c7.44043 0 13.4609 -6.02734 13.4609 -13.4609s-6.02051 -13.4609 -13.4609 -13.4609h-114.686v-434.66c0 -7.43359 -6.02051 -13.4609 -13.4609 -13.4609s-13.4609 6.02734 -13.4609 13.4609v434.66h-50.4414c-7.44043 0 -13.4609 6.02734 -13.4609 13.4609
s6.02051 13.4609 13.4609 13.4609h50.4414v47.8516z" />
    <glyph glyph-name="g" unicode="g" horiz-adv-x="608" 
d="M236.983 -175c-7.44043 0 -13.46 6.02734 -13.46 13.4609c0 7.43457 6.02051 13.4619 13.4609 13.4619c120.562 0 218.658 98.0889 218.658 218.657v77.6787c-38.2441 -83.4434 -120.913 -141.345 -216.502 -141.345c-131.868 0 -239.14 110.17 -239.14 245.581
s107.271 245.581 239.14 245.581c95.5889 0 178.258 -57.9014 216.502 -141.345v127.884c0 7.43359 6.02051 13.4609 13.4609 13.4609s13.4609 -6.02734 13.4609 -13.4609v-414.034c0 -135.411 -110.164 -245.581 -245.581 -245.581zM239.141 471.154
c-117.013 0 -212.216 -98.0898 -212.216 -218.658s95.2031 -218.657 212.216 -218.657s212.203 98.0889 212.203 218.657c0 120.569 -95.1904 218.658 -212.203 218.658z" />
    <glyph glyph-name="h" unicode="h" horiz-adv-x="502" 
d="M13.4619 -9.36035c-7.44043 0 -13.4619 6.02832 -13.4619 13.4629v722.821c-0 7.43359 6.02051 13.4609 13.4609 13.4609s13.4609 -6.02734 13.4609 -13.4619v-320.273c32.9971 54.7412 93.0322 91.4277 161.473 91.4277c103.88 0 188.396 -84.5156 188.396 -188.402
v-309.675c0 -7.43359 -6.02051 -13.4609 -13.4609 -13.4609s-13.4609 6.02734 -13.4609 13.4609v309.675c0 89.0381 -72.4346 161.479 -161.473 161.479s-161.473 -72.4414 -161.473 -161.479v-305.573c0 -7.43457 -6.02051 -13.4619 -13.4609 -13.4619z" />
    <glyph glyph-name="i" unicode="i" horiz-adv-x="206" 
d="M40.3848 -13.4619c-7.43359 0 -13.4609 6.02832 -13.4609 13.4619v484.615c0 7.43359 6.02734 13.4609 13.4609 13.4609s13.4609 -6.02734 13.4609 -13.4609v-484.615c0 -7.43457 -6.02734 -13.4619 -13.4609 -13.4619zM80.7695 686.539
c0 -22.3037 -18.0811 -40.3848 -40.3848 -40.3848s-40.3848 18.0811 -40.3848 40.3848s18.0811 40.3848 40.3848 40.3848s40.3848 -18.0811 40.3848 -40.3848z" />
    <glyph glyph-name="j" unicode="j" horiz-adv-x="394" 
d="M219.506 -99.4629v593.242c0 7.43359 6.02734 13.4609 13.4609 13.4609c7.43457 0 13.4619 -6.02734 13.4619 -13.4619v-593.241c0 -67.9453 -55.2725 -123.218 -123.211 -123.218c-67.9453 0 -123.218 55.2725 -123.218 123.218
c-0 7.43359 6.02734 13.4609 13.4609 13.4609c7.43457 0 13.4619 -6.02734 13.4619 -13.4609c0 -53.0967 43.1982 -96.2949 96.2949 -96.2949c53.0898 0 96.2881 43.1982 96.2881 96.2949zM269.23 688.324c0 -21.3184 -17.2812 -38.6006 -38.5996 -38.6006
s-38.6006 17.2822 -38.6006 38.6006s17.2822 38.6006 38.6006 38.6006s38.5996 -17.2822 38.5996 -38.6006z" />
    <glyph glyph-name="k" unicode="k" horiz-adv-x="515" 
d="M375.017 -13.4619c-2.80664 0 -5.63965 0.873047 -8.06543 2.69336l-323.077 242.308c-2.31738 1.73633 -3.91504 4.07715 -4.7373 6.63965l-10.1904 -6.98145c-0.651367 -0.446289 -1.3291 -0.828125 -2.02441 -1.14551v-230.054
c0 -7.43359 -6.02734 -13.4609 -13.4609 -13.4609s-13.4609 6.02734 -13.4609 13.4619v726.923c-0 7.43359 6.02734 13.4609 13.4609 13.4609s13.4609 -6.02734 13.4609 -13.4609v-464.474l340.502 233.274c6.12598 4.18066 14.5068 2.62988 18.7139 -3.50293
c4.2002 -6.13281 2.63574 -14.5068 -3.50391 -18.7139l-322.199 -220.735l322.673 -242.005c5.94824 -4.45605 7.15137 -12.8955 2.68848 -18.8438c-2.64258 -3.52344 -6.68457 -5.38379 -10.7793 -5.38379z" />
    <glyph glyph-name="l" unicode="l" horiz-adv-x="152" 
d="M13.4619 -13.4619c-7.44043 0 -13.4609 6.02832 -13.4609 13.4629v726.923c0 7.43359 6.02051 13.4609 13.4609 13.4609s13.4609 -6.02734 13.4609 -13.4619v-726.923c0 -7.43457 -6.02051 -13.4619 -13.4609 -13.4619z" />
    <glyph glyph-name="m" unicode="m" horiz-adv-x="801" 
d="M662.363 -19.6992c-7.44043 0 -13.4629 6.02734 -13.4629 13.4609v328.625c0 82.0312 -66.7295 148.768 -148.761 148.768s-148.761 -66.7363 -148.761 -148.768v-324.451c0 -7.43359 -6.02051 -13.4609 -13.4609 -13.4609s-13.4609 6.02734 -13.4609 13.4609v324.451
c0 82.0312 -66.7422 148.768 -148.773 148.768s-148.761 -66.7363 -148.761 -148.768v-324.451c0 -7.43359 -6.02051 -13.4609 -13.4609 -13.4609s-13.4609 6.02734 -13.4609 13.4609v486.68c0 7.43359 6.02051 13.4609 13.4609 13.4609s13.4609 -6.02734 13.4609 -13.4609
v-68.8496c31.126 49.4121 86.1738 82.3115 148.761 82.3115c72.9902 0 135.733 -44.7441 162.234 -108.243c26.4971 63.499 89.2324 108.243 162.223 108.243c96.873 0 175.684 -78.8174 175.684 -175.69v-328.625c0 -7.43359 -6.02051 -13.4609 -13.4609 -13.4609z" />
    <glyph glyph-name="n" unicode="n" horiz-adv-x="477" 
d="M26.9229 484.615l-0.00292969 -69.1631c31.1924 49.5957 86.4141 82.625 149.208 82.625c97.123 0 176.131 -79.0146 176.131 -176.131v-320.815c0 -7.43359 -6.02051 -13.4609 -13.4609 -13.4609s-13.4609 6.02734 -13.4609 13.4609v320.815
c0 82.2744 -66.9395 149.207 -149.207 149.207s-149.207 -66.9326 -149.207 -149.207v-321.946c0 -7.43359 -6.02051 -13.4609 -13.4609 -13.4609s-13.4609 6.02734 -13.4609 13.4609v484.615c0 7.43359 6.02051 13.4609 13.4609 13.4609s13.4609 -6.02734 13.4609 -13.4609
z" />
    <glyph glyph-name="o" unicode="o" 
d="M255.77 471.154c-126.188 0 -228.846 -102.657 -228.846 -228.846s102.657 -228.846 228.846 -228.846s228.846 102.657 228.846 228.846s-102.657 228.846 -228.846 228.846zM255.77 -13.4609c-141.03 0 -255.769 114.738 -255.769 255.769
s114.738 255.769 255.769 255.769s255.769 -114.738 255.769 -255.769s-114.738 -255.769 -255.769 -255.769z" />
    <glyph glyph-name="p" unicode="p" 
d="M13.4619 -175c-7.44043 0 -13.4629 6.02539 -13.4629 13.46v659.615h255.77c141.03 0 255.769 -114.738 255.769 -255.769s-114.738 -255.769 -255.769 -255.769c-100.027 0 -186.828 57.7188 -228.846 141.6v-289.677c0 -7.43359 -6.02051 -13.4609 -13.4609 -13.4609z
M26.9219 242.306c0 -126.188 102.657 -228.846 228.846 -228.846s228.846 102.657 228.846 228.846s-102.657 228.846 -228.846 228.846h-228.846v-228.846z" />
    <glyph glyph-name="q" unicode="q" 
d="M498.984 -165.482c-7.43359 0 -13.4609 6.02051 -13.4609 13.4609v280.593c-26.7334 -52.4463 -71.8086 -95.1875 -128.095 -117.7c-28.6455 -11.4502 -59.0127 -16.9717 -89.3076 -16.9717c-69.9824 0 -139.617 29.4209 -186.963 83.0176
c-70.4629 79.7568 -81.1572 199.13 -26.0029 290.284c53.1104 87.7822 160.375 134.589 260.909 113.857c73.4609 -15.1689 135.802 -64.3418 169.459 -129.719v117.77c0 7.43359 6.02734 13.4609 13.4609 13.4609s13.4609 -6.02734 13.4609 -13.4609v-621.131
c0 -7.44043 -6.02734 -13.4609 -13.4609 -13.4609zM267.812 459.04c-75.8135 0 -149.806 -39.9639 -189.625 -105.772c-48.3379 -79.9014 -38.6035 -188.626 23.1504 -258.523c60.4453 -68.4385 161.663 -92.667 246.1 -58.8682
c81.3018 32.5098 138.086 116.349 138.086 203.882c0 14.0205 -1.32129 28.001 -3.93066 41.5674c-16.5576 86.001 -85.2656 155.675 -170.971 173.363c-14.1846 2.93164 -28.5332 4.35156 -42.8096 4.35156z" />
    <glyph glyph-name="r" unicode="r" horiz-adv-x="313" 
d="M26.9229 484.615l0.000976562 -68.3574c31.0225 49.125 85.8018 81.8184 148.076 81.8184c7.43359 0 13.4609 -6.02734 13.4609 -13.4609s-6.02734 -13.4609 -13.4619 -13.4609c-81.6504 0 -148.077 -66.4268 -148.077 -148.077v-323.077
c0 -7.44043 -6.02734 -13.4609 -13.4609 -13.4609s-13.4609 6.02051 -13.4609 13.4609v484.615c-0 7.43359 6.02734 13.4609 13.4609 13.4609c7.43457 0 13.4619 -6.02734 13.4619 -13.4609z" />
    <glyph glyph-name="s" unicode="s" horiz-adv-x="394" 
d="M134.615 -13.4619c-74.2295 0 -134.615 60.3916 -134.615 134.614c-0 7.44043 6.02734 13.4609 13.4609 13.4609s13.4609 -6.02051 13.4609 -13.4609c0 -59.3809 48.3115 -107.692 107.692 -107.692s107.692 48.3115 107.692 107.692s-48.3115 107.692 -107.692 107.692
c-74.2295 0 -134.616 60.3867 -134.616 134.616s60.3867 134.616 134.616 134.616s134.616 -60.3867 134.616 -134.616c0 -7.43359 -6.02734 -13.4609 -13.4609 -13.4609c-7.43457 0 -13.4619 6.02734 -13.4619 13.4619c0 59.3809 -48.3115 107.692 -107.692 107.692
s-107.692 -48.3115 -107.692 -107.692s48.3115 -107.692 107.692 -107.692c74.2295 0 134.616 -60.3867 134.616 -134.616c0 -74.2227 -60.3867 -134.615 -134.616 -134.615z" />
    <glyph glyph-name="t" unicode="t" horiz-adv-x="394" 
d="M231.726 -13.4619c-57.8027 0 -104.825 47.0225 -104.825 104.812v379.802h-113.438c-7.44043 0 -13.4609 6.02734 -13.4609 13.4609s6.02051 13.4609 13.4609 13.4609h113.438v228.846c0 7.43359 6.02051 13.4609 13.4609 13.4609s13.4609 -6.02734 13.4609 -13.4609
v-228.846h101.947c7.44043 0 13.4609 -6.02734 13.4609 -13.4609s-6.02051 -13.4609 -13.4609 -13.4609h-101.947v-379.802c0 -42.9482 34.9424 -77.8906 77.9033 -77.8906c7.44043 0 13.4609 -6.02051 13.4609 -13.4609s-6.02051 -13.4609 -13.4609 -13.4609z" />
    <glyph glyph-name="u" unicode="u" horiz-adv-x="516" 
d="M195.324 -13.4619c-107.705 0 -195.321 87.6201 -195.321 195.319v302.76c0 7.43359 6.02051 13.4609 13.4609 13.4609s13.4609 -6.02734 13.4609 -13.4619v-302.76c0 -92.8574 75.5498 -168.395 168.4 -168.395s168.388 75.5371 168.388 168.395v301.997
c0 7.43359 6.02051 13.4609 13.4609 13.4609s13.4609 -6.02734 13.4609 -13.4619v-301.997c0 -107.699 -87.6182 -195.317 -195.311 -195.317z" />
    <glyph glyph-name="v" unicode="v" horiz-adv-x="539" 
d="M403.176 497.156c6.92773 -2.69531 10.3447 -10.5049 7.64941 -17.4326l-188.855 -484.615c-0.0302734 -0.0771484 -0.0888672 -0.130859 -0.120117 -0.207031c-0.136719 -0.333984 -0.37207 -0.602539 -0.535156 -0.923828
c-0.571289 -1.12305 -1.23828 -2.14746 -2.06152 -3.03711c-0.338867 -0.370117 -0.717773 -0.671875 -1.09961 -1.00391c-0.902344 -0.779297 -1.87305 -1.41406 -2.9375 -1.92773c-0.287109 -0.139648 -0.478516 -0.390625 -0.779297 -0.511719
c-0.163086 -0.0644531 -0.333008 -0.0361328 -0.49707 -0.0947266c-1.44531 -0.518555 -2.9502 -0.864258 -4.51172 -0.864258c-1.53809 0 -3.02344 0.333984 -4.4502 0.837891c-0.144531 0.0507812 -0.294922 0.0263672 -0.439453 0.0830078
c-0.280273 0.109375 -0.458984 0.341797 -0.727539 0.467773c-1.10449 0.512695 -2.1123 1.1582 -3.04688 1.95508c-0.37207 0.318359 -0.737305 0.610352 -1.06934 0.964844c-0.860352 0.911133 -1.56836 1.95996 -2.16113 3.12207
c-0.139648 0.275391 -0.345703 0.50293 -0.46582 0.787109c-0.0371094 0.0859375 -0.104492 0.147461 -0.139648 0.235352l-194.167 484.615c-2.76074 6.90137 0.591797 14.7363 7.49316 17.5039s14.7236 -0.584961 17.5107 -7.48633l181.495 -452.988l176.484 452.87
c2.70801 6.92773 10.543 10.3389 17.4316 7.65039z" />
    <glyph glyph-name="w" unicode="w" horiz-adv-x="803" 
d="M501.455 13.4619c82.2676 0 149.213 66.9268 149.213 149.201v329.519c0 7.43359 6.02051 13.4609 13.4609 13.4609s13.4609 -6.02734 13.4609 -13.4609v-329.519c0 -97.1162 -79.0078 -176.124 -176.131 -176.124c-73.1982 0 -136.111 44.8896 -162.656 108.588
c-26.5449 -63.6982 -89.4609 -108.588 -162.669 -108.588c-97.123 0 -176.131 79.0078 -176.131 176.124v325.331c0 7.43359 6.02051 13.4609 13.4609 13.4609s13.4609 -6.02734 13.4609 -13.4609v-325.331c0 -82.2744 66.9395 -149.201 149.207 -149.201
s149.207 66.9268 149.207 149.201v325.331c0 7.43359 6.02051 13.4609 13.4609 13.4609s13.4609 -6.02734 13.4609 -13.4609v-325.331c0 -82.2744 66.9268 -149.201 149.194 -149.201z" />
    <glyph glyph-name="x" unicode="x" horiz-adv-x="502" 
d="M15.2627 -13.4619c-2.70801 0 -5.44141 0.813477 -7.80762 2.50977c-6.04688 4.31152 -7.45312 12.7246 -3.12793 18.7715l167.53 234.547l-164.796 234.504c-4.27246 6.08691 -2.7998 14.4805 3.27344 18.7598c6.08691 4.25977 14.4736 2.80078 18.7588 -3.27246
l159.355 -226.761l162.025 226.84c4.3252 6.04102 12.7383 7.44727 18.7725 3.13574c6.04688 -4.3252 7.45312 -12.7324 3.12793 -18.7793l-167.524 -234.537l164.803 -234.513c4.27246 -6.08691 2.7998 -14.4873 -3.27344 -18.7598
c-2.35352 -1.65625 -5.06152 -2.44531 -7.73047 -2.44531c-4.2334 0 -8.40039 1.99805 -11.0293 5.71875l-159.361 226.771l-162.032 -226.85c-2.62891 -3.68066 -6.75684 -5.63965 -10.9639 -5.63965z" />
    <glyph glyph-name="y" unicode="y" horiz-adv-x="497" 
d="M343.624 -88.4463c0 0.420898 0.0205078 0.835938 0.0585938 1.24707c-0.0380859 0.411133 -0.0576172 0.828125 -0.0576172 1.24902v142.907c-35.8828 -45.7695 -91.2246 -73.5225 -151.324 -73.5225c-106.036 0 -192.301 86.2646 -192.301 192.301l0.551758 268.521
c0.0126953 7.42773 6.04004 13.4355 13.4609 13.4355h0.0263672c7.43457 -0.0126953 13.4492 -6.05957 13.4365 -13.4873l-0.551758 -268.494c0 -91.168 74.1895 -165.351 165.377 -165.351c65.7158 0 124.823 38.5898 151.324 98.5391v335.333
c0 7.44043 6.02734 13.4609 13.4609 13.4609c7.43457 0 13.4619 -6.02051 13.4619 -13.4609v-337.799c0.00488281 -0.211914 0.00488281 -0.424805 0 -0.637695v-191.742c0 -0.420898 -0.0195312 -0.837891 -0.0576172 -1.24902
c0.0380859 -0.411133 0.0576172 -0.828125 0.0576172 -1.24902c0 -69.9893 -56.9424 -126.938 -126.938 -126.938c-7.43359 0 -13.4609 6.02051 -13.4609 13.4609s6.02734 13.4609 13.4609 13.4609c55.1475 0 100.015 44.8672 100.015 100.015z" />
    <glyph glyph-name="z" unicode="z" horiz-adv-x="471" 
d="M25.4307 113.608c53.4443 52.2305 210.911 206.958 218.011 213.928c3.68359 3.99316 43.9961 47.6533 58.5771 62.5166c17.5234 17.8525 17.5234 26.4629 17.5234 37.3613c0 25.7793 -13.5605 43.7363 -25.7334 43.7363h-280.346
c-7.43359 0 -13.4609 6.02051 -13.4609 13.4609s6.02734 13.4609 13.4609 13.4609h280.346c29.5264 0 52.6572 -31.0381 52.6572 -70.6602c0 -16.6953 -1.89941 -32.4443 -25.2266 -56.2119c-14.6709 -14.96 -57.79 -61.6807 -58.2236 -62.1406
c-0.211914 -0.229492 -0.429688 -0.450195 -0.65332 -0.662109c-6.28125 -6.17285 -164.513 -161.664 -218.117 -214.038c-17.3203 -16.9316 -17.3203 -25.8574 -17.3203 -37.1631c0 -25.7793 13.5605 -43.7363 25.7334 -43.7363h280.346
c7.43359 0 13.4609 -6.02051 13.4609 -13.4609s-6.02734 -13.4609 -13.4619 -13.4609h-280.346c-29.5264 0 -52.6572 31.0381 -52.6572 70.6602c0 14.0664 -0 31.5771 25.4307 56.4102z" />
    <glyph glyph-name="braceleft" unicode="{" horiz-adv-x="257" 
d="M116.572 -13.4619c-1.40625 0 -2.84375 0.222656 -4.25684 0.696289c-2.40527 0.801758 -59.1895 20.3369 -84.4893 81.4131c-21.7764 52.5713 -13.3105 118.223 25.1484 195.153c9.58984 19.1797 18.8184 45.6299 8.32129 62.7197
c-10.4248 16.9844 -38.0908 20.8496 -47.8711 20.9023h-0.0234375c-7.40527 0.0332031 -13.3994 6.04102 -13.3994 13.4609c0 7.44043 6.02734 13.4609 13.4609 13.4609c9.74121 0.0527344 37.4072 3.91797 47.832 20.9023c10.4971 17.0898 1.26855 43.54 -8.32129 62.7197
c-38.459 76.9307 -46.9248 142.582 -25.1484 195.153c25.2998 61.0762 82.084 80.6113 84.4893 81.4131c7.09277 2.37988 14.6777 -1.45898 17.0312 -8.50488c2.34668 -7.0459 -1.44629 -14.6572 -8.47949 -17.0234c-0.933594 -0.31543 -48.0361 -17.0898 -68.3271 -66.5713
c-18.4443 -44.9854 -10.1953 -102.985 24.5166 -172.423c18.4238 -36.8486 20.8164 -66.7949 7.09863 -88.9854c-5.45605 -8.83008 -12.8623 -15.3398 -20.835 -20.1396c7.97266 -4.7998 15.3789 -11.3096 20.835 -20.1396
c13.7178 -22.1904 11.3252 -52.1367 -7.09863 -88.9854c-34.8174 -69.6348 -43.0137 -127.779 -24.3594 -172.805c20.6523 -49.8633 67.6621 -66.0332 68.1357 -66.1914c7.05273 -2.33984 10.8652 -9.96484 8.51172 -17.0244
c-1.87988 -5.63965 -7.13184 -9.20215 -12.7715 -9.20215z" />
    <glyph glyph-name="bar" unicode="|" horiz-adv-x="152" 
d="M13.4619 -13.4619c-7.44043 0 -13.4609 6.02051 -13.4609 13.4609v726.923c0 7.44043 6.02051 13.4609 13.4609 13.4609s13.4609 -6.02051 13.4609 -13.4609v-726.923c0 -7.44043 -6.02051 -13.4609 -13.4609 -13.4609z" />
    <glyph glyph-name="braceright" unicode="}" horiz-adv-x="257" 
d="M47.543 340.745c5.45605 8.83008 12.8594 15.3408 20.832 20.1406c-7.97266 4.7998 -15.3789 11.3096 -20.835 20.1396c-13.7178 22.1904 -11.3252 52.1367 7.09863 88.9854c34.8174 69.6348 43.0137 127.779 24.3594 172.805
c-20.6523 49.8633 -67.6621 66.0332 -68.1357 66.1914c-7.05273 2.33984 -10.8652 9.96484 -8.51172 17.0244c2.34668 7.0459 9.94531 10.8848 17.0312 8.50488c2.40527 -0.801758 59.1895 -20.3369 84.4893 -81.4131c21.7764 -52.5713 13.3105 -118.223 -25.1484 -195.153
c-9.58984 -19.1797 -18.8184 -45.6299 -8.32129 -62.7197c10.4248 -16.9844 38.0908 -20.8496 47.8711 -20.9023h0.0234375c7.40527 -0.0332031 13.3994 -6.04102 13.3994 -13.4609c0 -7.44043 -6.02734 -13.4609 -13.4619 -13.4609
c-9.74121 -0.0527344 -37.4072 -3.91797 -47.832 -20.9023c-10.4971 -17.0898 -1.26855 -43.54 8.32129 -62.7197c38.459 -76.9307 46.9248 -142.582 25.1484 -195.153c-25.2998 -61.0762 -82.084 -80.6113 -84.4893 -81.4131
c-1.41309 -0.473633 -2.85254 -0.697266 -4.25879 -0.697266c-5.63965 0 -10.8916 3.5625 -12.7715 9.20215c-2.34668 7.0459 1.44629 14.6572 8.47949 17.0234c0.933594 0.31543 48.0361 17.0898 68.3271 66.5713c18.4443 44.9854 10.1953 102.985 -24.5166 172.423
c-18.4238 36.8486 -20.8164 66.7949 -7.09863 88.9854z" />
    <glyph glyph-name="asciitilde" unicode="~" horiz-adv-x="467" 
d="M243.78 348.238c-34.7979 0 -67.2422 18.7197 -84.6738 48.877c-0.0546875 0.0947266 -0.108398 0.189453 -0.161133 0.285156c-12.6875 21.6738 -36.0928 35.1299 -61.1914 35.1299c-39.0566 0 -70.8311 -31.7744 -70.8311 -70.8311
c0 -7.44043 -6.02051 -13.4609 -13.4609 -13.4609s-13.4609 6.02051 -13.4609 13.4609c0 53.8984 43.8555 97.7539 97.7539 97.7539c34.6611 0 66.999 -18.5879 84.4746 -48.5439c0.0673828 -0.109375 0.133789 -0.220703 0.199219 -0.333008
c12.6201 -21.8486 36.1387 -35.415 61.3525 -35.415c39.0566 0 70.8311 31.7744 70.8311 70.8311c0 7.44043 6.02051 13.4609 13.4609 13.4609s13.4609 -6.02051 13.4609 -13.4609c0 -53.8984 -43.8555 -97.7539 -97.7539 -97.7539z" />
    <glyph glyph-name="nonbreakingspace" unicode="&#xa0;" horiz-adv-x="357" 
 />
    <glyph glyph-name="uni59740" unicode="&#xe95c;" horiz-adv-x="386" 
d="M116.237 551.923c-7.44043 0 -13.4629 6.01953 -13.4629 13.46v161.153c-0.0273438 0.963867 0.0498047 1.9209 0.225586 2.85449c0.489258 2.64648 1.75195 5.02051 3.54492 6.87891c0.455078 0.472656 0.947266 0.914062 1.47461 1.32031
c1.44727 1.11523 3.12793 1.94238 4.95703 2.39648c1.52832 0.382812 3.08105 0.484375 4.59473 0.331055c2.89746 -0.28418 5.52441 -1.48535 7.58594 -3.31055c1.01172 -0.892578 1.89941 -1.94629 2.61816 -3.14453
c0.424805 -0.705078 0.787109 -1.45215 1.07812 -2.23438l51.9961 -129.996l52.0068 129.997c0.298828 0.802734 0.671875 1.56934 1.11133 2.29102c0.734375 1.21094 1.64258 2.27441 2.67773 3.16992c1.70605 1.48242 3.79004 2.54199 6.08984 3.0166
c2.21875 0.46582 4.57031 0.376953 6.83691 -0.355469c1.50488 -0.479492 2.89453 -1.2168 4.11719 -2.15918c0.527344 -0.40625 1.01953 -0.847656 1.47461 -1.32031c1.79297 -1.8584 3.05566 -4.23242 3.54492 -6.87891
c0.175781 -0.933594 0.25293 -1.89062 0.225586 -2.85449v-161.153c0 -7.44043 -6.02051 -13.4609 -13.4609 -13.4609s-13.4609 6.02051 -13.4609 13.4609v91.6445l-38.6621 -96.6406c-0.894531 -2.24219 -2.32422 -4.1084 -4.08301 -5.5127
c-1.01172 -0.80957 -2.1582 -1.48633 -3.42285 -1.99219c-1.62988 -0.657227 -3.32617 -0.959961 -4.99609 -0.959961c-3.06641 0 -6.04199 1.05469 -8.41797 2.95215c-1.75879 1.4043 -3.18848 3.27051 -4.08301 5.5127l-38.6494 96.627v-91.6318
c0 -7.44043 -6.02051 -13.4609 -13.4609 -13.4609zM80.0703 712.448c-0.694336 0.00976562 -12.1143 0.111328 -26.1221 0.235352v-146.998c0 -7.44043 -6.02051 -13.4609 -13.4609 -13.4609s-13.4609 6.02051 -13.4609 13.4609v147.235
c-14.8555 0.130859 -27.0283 0.237305 -27.0283 0.237305l0.236328 26.9229l67.6494 -0.591797c15.6172 -0.144531 25.9238 -0.236328 25.8711 -13.6318l-26.9229 0.144531l13.4619 -0.0917969z" />
    <glyph glyph-name="uni59750" unicode="&#xe966;" horiz-adv-x="1024" 
d="M134.773 -13.4619c-2.53711 0 -5.10059 0.709961 -7.3877 2.20898c-6.20508 4.08887 -7.92676 12.4365 -3.85156 18.6543l477.977 726.923c4.08887 6.20508 12.4365 7.92676 18.6543 3.85156c6.20508 -4.08887 7.92676 -12.4365 3.85156 -18.6543l-477.977 -726.923
c-2.58984 -3.93066 -6.88867 -6.06055 -11.2666 -6.06055zM797.018 270.177c-41.5156 0 -75.3008 -33.7725 -75.3008 -75.2881s33.7852 -75.3008 75.3008 -75.3008s75.2881 33.7852 75.2881 75.3008s-33.7725 75.2881 -75.2881 75.2881zM797.018 92.666
c-56.3701 0 -102.224 45.8535 -102.224 102.224c0 56.3574 45.8535 102.211 102.224 102.211c56.3574 0 102.211 -45.8535 102.211 -102.211c0 -56.3701 -45.8535 -102.224 -102.211 -102.224zM538.369 277.302c-41.5156 0 -75.2881 -33.7725 -75.2881 -75.2881
s33.7725 -75.3008 75.2881 -75.3008s75.3008 33.7852 75.3008 75.3008s-33.7852 75.2881 -75.3008 75.2881zM538.369 99.791c-56.3574 0 -102.211 45.8535 -102.211 102.224c0 56.3574 45.8535 102.211 102.211 102.211c56.3701 0 102.224 -45.8535 102.224 -102.211
c0 -56.3701 -45.8535 -102.224 -102.224 -102.224zM164.364 713.461c-75.7871 0 -137.442 -61.6553 -137.442 -137.442s61.6553 -137.442 137.442 -137.442s137.442 61.6553 137.442 137.442s-61.6553 137.442 -137.442 137.442zM164.364 411.654
c-90.6289 0 -164.365 73.7363 -164.365 164.365s73.7363 164.365 164.365 164.365s164.365 -73.7363 164.365 -164.365s-73.7363 -164.365 -164.365 -164.365z" />
    <glyph glyph-name="uni59760" unicode="&#xe970;" horiz-adv-x="737" 
d="M491.478 168.27h-172.089v-168.27c0 -7.44043 -6.02734 -13.4609 -13.4609 -13.4609c-7.43457 0 -13.4619 6.02051 -13.4619 13.4609v168.27h-172.095c-7.43359 0 -13.4609 6.02051 -13.4609 13.4609s6.02734 13.4609 13.4609 13.4609h172.095v142.188h-172.095
c-7.43359 0 -13.4609 6.02051 -13.4609 13.4609s6.02734 13.4609 13.4609 13.4609h167.643l-283.366 354.207c-4.64746 5.81055 -3.70703 14.2764 2.10352 18.9297c5.79785 4.64062 14.2832 3.70703 18.917 -2.10352l280.262 -350.326l280.259 350.326
c4.64062 5.78418 13.1328 6.73047 18.917 2.10352c5.81055 -4.65332 6.75098 -13.1191 2.10352 -18.9297l-283.37 -354.207h167.64c7.43359 0 13.4609 -6.02051 13.4609 -13.4609s-6.02734 -13.4609 -13.4609 -13.4609h-172.088v-142.188h172.088
c7.43359 0 13.4609 -6.02051 13.4609 -13.4609s-6.02734 -13.4609 -13.4619 -13.4609z" />
    <glyph glyph-name="uni59761" unicode="&#xe971;" horiz-adv-x="505" 
d="M366.893 269.23l-215.059 0.000976562l-65.3535 -114.37c-2.48438 -4.35156 -7.02637 -6.7832 -11.7002 -6.7832c-2.26074 0 -4.56152 0.56543 -6.66504 1.77441c-6.45508 3.68066 -8.69629 11.9102 -5.00879 18.3652l57.7217 101.014h-107.367
c-7.43359 0 -13.4609 6.02051 -13.4609 13.4609s6.02734 13.4609 13.4609 13.4609h122.752l76.9219 134.615h-199.674c-7.43359 0 -13.4609 6.02051 -13.4609 13.4609s6.02734 13.4609 13.4619 13.4609h215.058l65.3535 114.37
c3.69434 6.44141 11.9238 8.70215 18.3652 5.00781c6.45508 -3.68066 8.69629 -11.9102 5.00879 -18.3652l-57.7217 -101.014h107.367c7.43359 0 13.4609 -6.02051 13.4609 -13.4609s-6.02734 -13.4609 -13.4609 -13.4609h-122.752l-76.9219 -134.615h199.674
c7.43359 0 13.4609 -6.02051 13.4609 -13.4609s-6.02734 -13.4609 -13.4609 -13.4609z" />
    <glyph glyph-name="uni59762" unicode="&#xe972;" 
d="M376.923 471.154c-59.3809 0 -107.692 -48.3115 -107.692 -107.692s48.3115 -107.692 107.692 -107.692s107.692 48.3115 107.692 107.692s-48.3115 107.692 -107.692 107.692zM376.923 228.847c-74.2227 0 -134.615 60.3926 -134.615 134.615
s60.3926 134.615 134.615 134.615s134.615 -60.3926 134.615 -134.615s-60.3926 -134.615 -134.615 -134.615zM134.615 471.154c-59.3809 0 -107.692 -48.3115 -107.692 -107.692s48.3115 -107.692 107.692 -107.692s107.692 48.3115 107.692 107.692
s-48.3115 107.692 -107.692 107.692zM134.615 228.847c-74.2295 0 -134.616 60.3926 -134.616 134.615s60.3867 134.615 134.616 134.615s134.616 -60.3926 134.616 -134.615s-60.3867 -134.615 -134.616 -134.615z" />
    <glyph glyph-name="uni59763" unicode="&#xe973;" horiz-adv-x="615" 
d="M417.308 471.154l-67.3086 -0.000976562v-331.49c0 -69.582 56.6201 -126.202 126.202 -126.202c7.44043 0 13.4609 -6.02051 13.4609 -13.4609s-6.02051 -13.4609 -13.4609 -13.4609c-84.4365 0 -153.125 68.6885 -153.125 153.125v331.49h-215.385v-471.154
c0 -7.44043 -6.02051 -13.4609 -13.4609 -13.4609s-13.4609 6.02051 -13.4609 13.4609v471.154h-67.3076c-7.44043 0 -13.4609 6.02051 -13.4609 13.4609s6.02051 13.4609 13.4609 13.4609h403.846c7.44043 0 13.4609 -6.02051 13.4609 -13.4609
s-6.02051 -13.4609 -13.4609 -13.4609z" />
    <glyph glyph-name="uni59764" unicode="&#xe974;" horiz-adv-x="784" 
d="M1.81445 0c0 4.69238 2.39648 8.81836 6.03125 11.2275l493.137 352.232l-493.137 352.232c-3.63477 2.40918 -6.0293 6.53711 -6.0293 11.2295c0 7.44043 6.02051 13.4609 13.4609 13.4609h630.011c7.44043 0 13.4609 -6.02051 13.4609 -13.4609
s-6.02051 -13.4609 -13.4609 -13.4609h-588.011l474.29 -338.771c0.758789 -0.503906 1.47363 -1.08984 2.13086 -1.75586c1.20996 -1.21777 2.14844 -2.63086 2.80078 -4.15137c0.738281 -1.70898 1.09668 -3.52051 1.09473 -5.32129
c0.000976562 -1.7998 -0.357422 -3.61133 -1.0957 -5.32031c-0.68457 -1.59473 -1.68359 -3.07129 -2.98047 -4.32812c-0.588867 -0.575195 -1.22266 -1.08789 -1.89062 -1.53613l-474.352 -338.815h588.011c7.44043 0 13.4609 -6.02051 13.4609 -13.4609
s-6.02051 -13.4609 -13.4609 -13.4609h-630.011c-7.44043 0 -13.4609 6.02051 -13.4609 13.4609z" />
    <glyph glyph-name="uni59765" unicode="&#xe975;" horiz-adv-x="475" 
d="M215.385 282.692c0 -22.3037 -18.0811 -40.3848 -40.3848 -40.3848s-40.3848 18.0811 -40.3848 40.3848s18.0811 40.3848 40.3848 40.3848s40.3848 -18.0811 40.3848 -40.3848zM215.385 525c0 -22.3037 -18.0811 -40.3848 -40.3848 -40.3848
s-40.3848 18.0811 -40.3848 40.3848s18.0811 40.3848 40.3848 40.3848s40.3848 -18.0811 40.3848 -40.3848zM336.539 390.385h-323.077c-7.44043 0 -13.4609 6.02051 -13.4609 13.4609s6.02051 13.4609 13.4609 13.4609h323.077
c7.44043 0 13.4609 -6.02051 13.4609 -13.4609s-6.02051 -13.4609 -13.4609 -13.4609z" />
    <glyph glyph-name="uni59766" unicode="&#xe976;" horiz-adv-x="881" 
d="M14.7764 -13.4619c-3.44434 0 -6.88965 1.31445 -9.51855 3.94336c-5.25879 5.25879 -5.25879 13.7773 0 19.0361l97.2285 97.2285c-62.7412 67.3477 -101.173 157.627 -101.173 256.715c0 207.839 169.084 376.923 376.923 376.923
c99.0879 0 189.367 -38.4316 256.715 -101.173l97.2285 97.2285c5.25879 5.25879 13.7773 5.25879 19.0361 0s5.25879 -13.7773 0 -19.0361l-97.2285 -97.2285c62.7412 -67.3477 101.173 -157.627 101.173 -256.715c0 -207.839 -169.084 -376.923 -376.923 -376.923
c-99.0879 0 -189.367 38.4316 -256.715 101.173l-97.2285 -97.2285c-2.62891 -2.62891 -6.07324 -3.94336 -9.51758 -3.94336zM28.2373 363.461c0 -91.667 35.4189 -175.214 93.29 -237.675l494.385 494.385c-62.4609 57.8711 -146.008 93.29 -237.675 93.29
c-192.997 0 -350 -157.003 -350 -350zM728.237 363.461c0 91.667 -35.4189 175.214 -93.29 237.675l-494.385 -494.385c62.4609 -57.8711 146.008 -93.29 237.675 -93.29c192.997 0 350 157.003 350 350z" />
    <glyph glyph-name="uni59767" unicode="&#xe977;" horiz-adv-x="611" 
d="M242.886 13.4619c116.296 0 211.413 149.755 215.792 336.538h-431.598c4.37988 -186.783 99.5098 -336.538 215.806 -336.538zM242.886 713.462c-116.296 0 -211.426 -149.755 -215.806 -336.538h431.598c-4.37891 186.783 -99.4961 336.538 -215.792 336.538z
M242.886 -13.4609c-133.932 0 -242.886 169.084 -242.886 376.923s108.954 376.923 242.886 376.923c133.919 0 242.873 -169.084 242.873 -376.923s-108.954 -376.923 -242.873 -376.923z" />
    <glyph glyph-name="uni59769" unicode="&#xe979;" 
d="M498.077 265.444l-336.032 -0.00195312c42.4902 -145.44 177.055 -251.983 336.035 -251.983c7.43359 0 13.4609 -6.02051 13.4609 -13.4609s-6.02734 -13.4609 -13.4609 -13.4609c-173.947 0 -320.749 118.437 -364 278.906h-120.615
c-7.43359 0 -13.4609 6.02051 -13.4609 13.4609s6.02734 13.4609 13.4609 13.4609h114.416c-4.41309 23.0293 -6.72363 46.7969 -6.72363 71.0938s2.31055 48.0645 6.72363 71.0938h-114.416c-7.43359 0 -13.4609 6.02051 -13.4609 13.4609s6.02734 13.4609 13.4609 13.4609
h120.615c43.251 160.47 190.053 278.906 364 278.906c7.43359 0 13.4609 -6.02051 13.4609 -13.4609s-6.02734 -13.4609 -13.4619 -13.4609c-158.98 0 -293.545 -106.543 -336.035 -251.983h336.034c7.43359 0 13.4609 -6.02051 13.4609 -13.4609
s-6.02734 -13.4609 -13.4609 -13.4609h-342.744c-4.75586 -22.9629 -7.25586 -46.7422 -7.25586 -71.0938s2.5 -48.1309 7.25586 -71.0938h342.744c7.43359 0 13.4609 -6.02051 13.4609 -13.4609s-6.02734 -13.4609 -13.4619 -13.4609z" />
    <glyph glyph-name="uni59770" unicode="&#xe97a;" horiz-adv-x="397" 
d="M228.472 551.923h-185.095c-7.43359 0 -13.4609 6.02051 -13.4609 13.4609s6.02734 13.4609 13.4609 13.4609h185.096c7.43359 0 13.4609 -6.02051 13.4609 -13.4609s-6.02734 -13.4609 -13.4619 -13.4609zM135.925 228.846c-7.43359 0 -13.46 6.02051 -13.46 13.4609
v108.021h-109c-7.43359 0 -13.4609 6.02051 -13.4609 13.4609s6.02734 13.4609 13.4609 13.4609h109v108.008c0 7.44043 6.02734 13.4609 13.4609 13.4609s13.4609 -6.02051 13.4609 -13.4609v-108.008h109c7.43359 0 13.4609 -6.02051 13.4609 -13.4609
s-6.02734 -13.4609 -13.4609 -13.4609h-109v-108.021c0 -7.44043 -6.02734 -13.4609 -13.4619 -13.4609z" />
    <glyph glyph-name="uni59771" unicode="&#xe97b;" horiz-adv-x="663" 
d="M524.251 264.459h-185.096c-7.44043 0 -13.4609 6.02051 -13.4609 13.4609s6.02051 13.4609 13.4609 13.4609h185.096c7.44043 0 13.4609 -6.02051 13.4609 -13.4609s-6.02051 -13.4609 -13.4609 -13.4609zM135.917 425.34c-7.44043 0 -13.4609 6.02051 -13.4609 13.4609
v108.021h-108.994c-7.44043 0 -13.4609 6.02051 -13.4609 13.4609s6.02051 13.4609 13.4609 13.4609h108.994v108.021c0 7.44043 6.02051 13.4609 13.4609 13.4609s13.4609 -6.02051 13.4609 -13.4609v-108.021h109.007c7.44043 0 13.4609 -6.02051 13.4609 -13.4609
s-6.02051 -13.4609 -13.4609 -13.4609h-109.007v-108.021c0 -7.44043 -6.02051 -13.4609 -13.4609 -13.4609zM150.903 228.846c-2.81348 0 -5.63867 0.879883 -8.05762 2.69434c-5.95508 4.45605 -7.16406 12.8955 -2.69434 18.8379l269.007 358.689
c4.45605 5.95508 12.8955 7.13867 18.8379 2.69531c5.95508 -4.45605 7.16406 -12.8955 2.69434 -18.8379l-269.007 -358.689c-2.64258 -3.53613 -6.67871 -5.38965 -10.7803 -5.38965z" />
    <glyph glyph-name="uni59772" unicode="&#xe97c;" horiz-adv-x="881" 
d="M47.2734 13.4619h256.223c0.46875 5.60352 0.703125 11.2285 0.703125 16.8262c0 63.3604 -29.8682 122.207 -80.4551 159.645zM5.50977 9.76855l203.802 203.801c0.267578 0.570312 0.578125 1.12793 0.933594 1.66992c1.41895 2.17676 3.36523 3.80371 5.56152 4.82617
l516.375 516.375c5.25879 5.25879 13.7773 5.25879 19.0361 0s5.25879 -13.7773 0 -19.0361l-508.253 -508.253c55.5088 -42.5986 88.1582 -108.255 88.1582 -178.864c0 -5.59668 -0.208008 -11.2188 -0.621094 -16.8262h411.197
c7.44043 0 13.4609 -6.02051 13.4609 -13.4609s-6.02051 -13.4609 -13.4609 -13.4609h-726.923c-7.44043 0 -13.4609 6.02051 -13.4609 13.4609c0 3.84766 1.61035 7.31641 4.19434 9.76855z" />
    <glyph glyph-name="uni59773" unicode="&#xe97d;" horiz-adv-x="337" 
d="M198.558 -13.4619h-185.096c-7.44043 0 -13.4609 6.02051 -13.4609 13.4609s6.02051 13.4609 13.4609 13.4609h185.096c7.44043 0 13.4609 -6.02051 13.4609 -13.4609s-6.02051 -13.4609 -13.4609 -13.4609zM7.41406 90.7734l168.058 151.532l-168.059 151.534
c-5.52148 4.98242 -5.95508 13.501 -0.972656 19.0225c4.96875 5.53418 13.4873 5.95508 19.0088 0.986328l179.154 -161.538c2.94629 -2.6582 4.44434 -6.32422 4.44336 -10.0039c0.000976562 -3.67969 -1.49707 -7.3457 -4.44336 -10.0039l-179.154 -161.538
c-2.57617 -2.31348 -5.79688 -3.45703 -9.01758 -3.45703c-3.68066 0 -7.33496 1.49902 -9.99023 4.44336c-4.98242 5.52148 -4.54883 14.04 0.972656 19.0225z" />
    <glyph glyph-name="uni59774" unicode="&#xe97e;" horiz-adv-x="337" 
d="M198.558 -13.4619h-185.096c-7.44043 0 -13.4609 6.02051 -13.4609 13.4609s6.02051 13.4609 13.4609 13.4609h185.096c7.44043 0 13.4609 -6.02051 13.4609 -13.4609s-6.02051 -13.4609 -13.4609 -13.4609zM7.41406 232.303
c-2.94629 2.6582 -4.44629 6.32617 -4.44531 10.0059c-0.000976562 3.67969 1.49707 7.3457 4.44336 10.0039l179.154 161.538c5.52148 4.96875 14.0273 4.54785 19.0098 -0.986328c4.98242 -5.52148 4.54883 -14.04 -0.972656 -19.0225l-168.059 -151.534l168.059 -151.534
c5.52148 -4.98242 5.95508 -13.501 0.972656 -19.0225c-2.65527 -2.94434 -6.30957 -4.44336 -9.99023 -4.44336c-3.2207 0 -6.44141 1.14355 -9.01758 3.45703z" />
    <glyph glyph-name="uni59775" unicode="&#xe97f;" horiz-adv-x="475" 
d="M336.538 309.615h-323.077c-7.44043 0 -13.4609 6.02051 -13.4609 13.4609s6.02051 13.4609 13.4609 13.4609h323.077c7.44043 0 13.4609 -6.02051 13.4609 -13.4609s-6.02051 -13.4609 -13.4609 -13.4609zM248.013 386.861
c-34.7559 0 -67.1738 18.6875 -84.6162 48.7871l-0.0439453 0.0761719l-0.00585938 0.0117188c-12.6484 21.8418 -36.1494 35.417 -61.3594 35.417c-39.0566 0 -70.8311 -31.7744 -70.8311 -70.8311c0 -7.44043 -6.02051 -13.4609 -13.4609 -13.4609
s-13.4609 6.02051 -13.4609 13.4609c0 53.8984 43.8555 97.7539 97.7539 97.7539c34.7842 0 67.2285 -18.7197 84.6602 -48.8633l0.00585938 -0.0117188c12.6484 -21.8418 36.1494 -35.417 61.3594 -35.417c39.0566 0 70.8311 31.7744 70.8311 70.8311
c0 7.44043 6.02051 13.4609 13.4609 13.4609s13.4609 -6.02051 13.4609 -13.4609c0 -53.8984 -43.8555 -97.7539 -97.7539 -97.7539z" />
    <glyph glyph-name="uni59776" unicode="&#xe980;" horiz-adv-x="367" 
d="M242.308 363.462c0 -22.3037 -18.0811 -40.3848 -40.3848 -40.3848s-40.3848 18.0811 -40.3848 40.3848s18.0811 40.3848 40.3848 40.3848s40.3848 -18.0811 40.3848 -40.3848zM80.7695 363.462c0 -22.3037 -18.0811 -40.3848 -40.3848 -40.3848
s-40.3848 18.0811 -40.3848 40.3848s18.0811 40.3848 40.3848 40.3848s40.3848 -18.0811 40.3848 -40.3848zM161.539 525c0 -22.3037 -18.0811 -40.3848 -40.3848 -40.3848s-40.3848 18.0811 -40.3848 40.3848s18.0811 40.3848 40.3848 40.3848
s40.3848 -18.0811 40.3848 -40.3848z" />
    <glyph glyph-name="uni59778" unicode="&#xe982;" horiz-adv-x="879" 
d="M349.158 -13.4619l-335.697 0.00195312c-7.43359 0 -13.4609 6.02051 -13.4609 13.4609s6.02734 13.4609 13.4609 13.4609h322.235v356.73h-322.235c-7.43359 0 -13.4609 6.02051 -13.4609 13.4609c-0 0.685547 0.0507812 1.35938 0.149414 2.01758
c-0.0986328 0.658203 -0.149414 1.33203 -0.149414 2.01758v339.233c-0 7.44043 6.02734 13.4609 13.4609 13.4609c7.43457 0 13.4619 -6.02051 13.4619 -13.4609v-329.808h308.774v329.808c0 7.44043 6.02734 13.4609 13.4609 13.4609
c0.599609 0 1.18945 -0.0390625 1.76758 -0.115234c0.578125 0.0761719 1.16797 0.115234 1.76758 0.115234h387.689c7.43359 0 13.4609 -6.02051 13.4609 -13.4609s-6.02734 -13.4609 -13.4609 -13.4609h-377.765v-316.346h377.765
c7.43359 0 13.4609 -6.02051 13.4609 -13.4609c0 -0.53418 -0.03125 -1.06055 -0.0917969 -1.57812c0.0605469 -0.517578 0.0917969 -1.04395 0.0917969 -1.57812v-380.499c0 -7.44043 -6.02734 -13.4609 -13.4609 -13.4609s-13.4609 6.02051 -13.4609 13.4609v370.192
h-364.303v-369.562c0 -0.105469 -0.000976562 -0.210938 -0.00292969 -0.31543c0.00195312 -0.104492 0.00292969 -0.209961 0.00292969 -0.31543c0 -7.44043 -6.02734 -13.4609 -13.4609 -13.4609z" />
    <glyph glyph-name="uni59779" unicode="&#xe983;" horiz-adv-x="1027" 
d="M450.765 228.426c-7.44043 0 -13.4609 6.02051 -13.4609 13.4609v217.698c0 7.44043 6.02051 13.4609 13.4609 13.4609s13.4609 -6.02051 13.4609 -13.4609v-217.698c0 -7.44043 -6.02051 -13.4609 -13.4609 -13.4609zM482.513 128.503
c0 -17.5342 -14.2139 -31.748 -31.748 -31.748c-17.5332 0 -31.7471 14.2139 -31.7471 31.748s14.2139 31.748 31.7471 31.748c17.5342 0 31.748 -14.2139 31.748 -31.748zM886.175 -13.4609c-2.83887 0 -5.63086 0.900391 -7.94531 2.58594
c-2.22363 -1.62402 -4.96582 -2.58203 -7.93359 -2.58203h-854.926h-0.00585938h-0.00585938c-0.452148 0 -0.905273 0.0224609 -1.3584 0.0683594c-2.96191 0.298828 -5.63867 1.55566 -7.7168 3.45703c-0.776367 0.708008 -1.45605 1.49512 -2.0332 2.3418
c-1.2373 1.80957 -2.04395 3.9375 -2.27344 6.2373c-0.145508 1.42969 -0.0634766 2.88965 0.259766 4.32129c0.34375 1.53125 0.948242 2.96387 1.76367 4.24805l435.077 725.129c0.348633 0.610352 0.746094 1.19629 1.19141 1.75098
c2.00195 2.50488 4.77734 4.13477 7.77246 4.75195c0.90332 0.186523 1.81641 0.27832 2.72461 0.27832c1.18652 0 2.38086 -0.15625 3.55176 -0.477539c2.30664 -0.629883 4.44824 -1.87207 6.16113 -3.66016c0.774414 -0.805664 1.43555 -1.69629 1.97754 -2.64648
l435.248 -725.414c3.8252 -6.37598 1.76172 -14.6445 -4.61426 -18.4697c-2.16895 -1.30176 -4.56152 -1.91992 -6.91504 -1.91992zM39.1465 13.4658h823.242l-411.621 686.034z" />
    <glyph glyph-name="uni59780" unicode="&#xe984;" horiz-adv-x="879" 
d="M401.349 154.545c-115.198 0 -208.917 93.7207 -208.917 208.919s93.7178 208.916 208.916 208.916c59.9062 0 117.013 -25.7793 156.688 -70.7129c4.91699 -5.57422 4.3916 -14.0801 -1.18262 -19.0098s-14.0664 -4.4043 -19.0098 1.18262
c-34.5605 39.1621 -84.3047 61.6152 -136.494 61.6152c-100.356 0 -181.993 -81.6367 -181.993 -181.993s81.6367 -181.993 181.993 -181.993c52.1895 0 101.947 22.4668 136.508 61.6289c4.95605 5.56055 13.4355 6.09961 19.0098 1.18262
c5.57422 -4.92969 6.09961 -13.4355 1.18262 -19.0098c-39.6875 -44.9463 -96.7939 -70.7256 -156.7 -70.7256zM376.922 713.465c-192.997 0 -350 -157.003 -350 -350s157.003 -350 350 -350s350 157.003 350 350s-157.003 350 -350 350zM376.922 -13.458
c-207.839 0 -376.923 169.084 -376.923 376.923s169.084 376.923 376.923 376.923s376.923 -169.084 376.923 -376.923s-169.084 -376.923 -376.923 -376.923z" />
    <glyph glyph-name="uni59781" unicode="&#xe985;" horiz-adv-x="878" 
d="M247.014 156.018c-7.44043 0 -13.4629 6.02051 -13.4629 13.4609v259.017c0 0.199219 0.00390625 0.397461 0.0126953 0.594727c1.04004 77.9346 64.7734 141.026 142.964 141.026c78.8232 0 142.963 -64.1396 142.963 -142.963
c0 -78.8369 -64.1396 -142.977 -142.963 -142.977c-0.336914 0 -0.673828 0.000976562 -1.01074 0.00292969l138.584 -103.937c5.95508 -4.45605 7.16406 -12.8955 2.69434 -18.8379c-2.64258 -3.53613 -6.67871 -5.38965 -10.7803 -5.38965
c-2.81348 0 -5.63965 0.880859 -8.05859 2.69531l-192.729 144.545c-9.95508 5.75195 -19.1562 12.6689 -27.416 20.5635l-17.3359 13.002v-167.343c0 -7.44043 -6.02051 -13.4609 -13.4609 -13.4609zM260.474 427.154c0 -32.3936 13.3389 -61.7285 34.8125 -82.8008
l24.7061 -18.5293c16.7383 -9.375 36.0234 -14.7236 56.5352 -14.7236c63.9814 0 116.04 52.0586 116.04 116.054c0 63.9814 -52.0586 116.04 -116.04 116.04c-63.9951 0 -116.054 -52.0586 -116.054 -116.04zM376.526 712.673
c-192.773 0 -349.605 -156.832 -349.605 -349.605s156.832 -349.605 349.605 -349.605s349.605 156.832 349.605 349.605s-156.832 349.605 -349.605 349.605zM376.526 -13.4619c-207.615 0 -376.528 168.913 -376.528 376.528s168.913 376.528 376.528 376.528
s376.528 -168.913 376.528 -376.528s-168.913 -376.528 -376.528 -376.528z" />
    <glyph glyph-name="uni59782" unicode="&#xe986;" horiz-adv-x="710" 
d="M292.604 -13.4619c-7.44043 0 -13.459 6.02051 -13.459 13.4609v70.5811h-71.2646c-7.44043 0 -13.4609 6.02051 -13.4609 13.4609s6.02051 13.4609 13.4609 13.4609h71.2646v57.9775c-155.118 7.05859 -279.144 135.469 -279.144 292.299
c0 161.341 131.263 292.604 292.604 292.604s292.604 -131.263 292.604 -292.604c0 -156.83 -124.025 -285.24 -279.144 -292.299v-57.9775h71.2646c7.44043 0 13.4609 -6.02051 13.4609 -13.4609s-6.02051 -13.4609 -13.4609 -13.4609h-71.2646v-70.5811
c0 -7.44043 -6.02051 -13.4609 -13.4609 -13.4609zM292.606 713.461c-146.499 0 -265.681 -119.182 -265.681 -265.681s119.182 -265.681 265.681 -265.681s265.681 119.182 265.681 265.681s-119.182 265.681 -265.681 265.681z" />
    <glyph glyph-name="uni59784" unicode="&#xe988;" horiz-adv-x="806" 
d="M367.609 -255.77c-38.2549 0 -69.3789 31.1318 -69.3789 69.3867c0 7.44043 6.02734 13.4609 13.4609 13.4609s13.4609 -6.02051 13.4609 -13.4609c0 -23.4131 19.042 -42.4619 42.4551 -42.4619s42.4551 19.0488 42.4551 42.4619
c0 23.4004 -19.042 42.4492 -42.4551 42.4492c-38.2549 0 -69.3779 31.1299 -69.3779 69.3848c0 18.8496 7.55566 35.9658 19.7979 48.4805c-180.554 32.3057 -318.029 190.504 -318.029 380.212c0 212.979 173.271 386.243 386.244 386.243
c110.742 0 216.318 -47.6543 289.667 -130.737c4.92285 -5.57422 4.39062 -14.0801 -1.18359 -19.0098c-5.56738 -4.92969 -14.0859 -4.39062 -18.9961 1.18359c-68.2412 77.3115 -166.469 121.64 -269.487 121.64c-198.131 0 -359.321 -161.196 -359.321 -359.32
s161.19 -359.32 359.321 -359.32c103.039 0 201.267 44.3418 269.494 121.667c4.91699 5.56055 13.4229 6.09961 19.0029 1.18262c5.57422 -4.91699 6.10645 -13.4355 1.18945 -19.0098c-73.3418 -83.0957 -178.924 -130.764 -289.686 -130.764
c-5.26562 0 -10.5068 0.105469 -15.7217 0.31543c-0.9375 -0.207031 -1.91211 -0.316406 -2.91211 -0.316406c-23.4131 0 -42.4551 -19.0488 -42.4551 -42.4492c0 -23.4131 19.042 -42.4619 42.4551 -42.4619c38.2549 0 69.3779 -31.1162 69.3779 -69.3711
s-31.123 -69.3848 -69.3779 -69.3848z" />
    <glyph glyph-name="uni59785" unicode="&#xe989;" horiz-adv-x="589" 
d="M231.187 -244.227c-37.4268 0 -67.8867 30.458 -67.8867 67.8848c0 7.44043 6.02051 13.4609 13.4609 13.4609s13.4609 -6.02051 13.4609 -13.4609c0 -22.585 18.3779 -40.9629 40.9629 -40.9629c22.5977 0 40.9756 18.3779 40.9756 40.9629
c0 22.5977 -18.3779 40.9756 -40.9756 40.9756c-37.4268 0 -67.8857 30.459 -67.8857 67.8984c0 20.7646 9.37598 39.3848 24.1152 51.8486c-108.266 32.2988 -187.415 132.778 -187.415 251.405c0 144.633 117.657 262.29 262.29 262.29
c75.1953 0 146.894 -32.3525 196.717 -88.7754c4.91699 -5.57422 4.3916 -14.0801 -1.18262 -19.0098s-14.0664 -4.4043 -19.0098 1.18262c-44.6963 50.6387 -109.046 79.6787 -176.524 79.6787c-129.777 0 -235.366 -105.589 -235.366 -235.366
s105.589 -235.366 235.366 -235.366c67.4922 0 131.829 29.04 176.525 79.6914c4.94336 5.57422 13.4355 6.08691 19.0098 1.18359c5.57422 -4.92969 6.09961 -13.4355 1.18262 -19.0098c-49.8105 -56.4229 -121.509 -88.7881 -196.717 -88.7881
c-8.59375 0 -17.0918 0.415039 -25.4756 1.22656c-1.71191 -0.788086 -3.61816 -1.22754 -5.62793 -1.22754c-22.585 0 -40.9629 -18.3779 -40.9629 -40.9629c0 -22.5977 18.3779 -40.9756 40.9629 -40.9756c37.4395 0 67.8984 -30.459 67.8984 -67.8984
c0 -37.4268 -30.459 -67.8857 -67.8984 -67.8857z" />
    <glyph glyph-name="uni59786" unicode="&#xe98a;" horiz-adv-x="529" 
d="M202.055 -31.4062c-74.7734 0 -140.191 40.8271 -175.131 101.361v-231.494c0 -7.44043 -6.02051 -13.4609 -13.4609 -13.4609s-13.4609 6.02051 -13.4609 13.4609v646.154c0 7.44043 6.02051 13.4609 13.4609 13.4609s13.4609 -6.02051 13.4609 -13.4609v-313.967
c0 -96.5703 78.5605 -175.131 175.131 -175.131s175.131 78.5605 175.131 175.131v313.178c0 7.44043 6.02051 13.4609 13.4609 13.4609s13.4609 -6.02051 13.4609 -13.4609v-501.771c0 -7.44043 -6.02051 -13.4609 -13.4609 -13.4609s-13.4609 6.02051 -13.4609 13.4609
v87.9004c-34.9395 -60.5342 -100.357 -101.362 -175.131 -101.362z" />
    <glyph glyph-name="uni59787" unicode="&#xe98b;" horiz-adv-x="880" 
d="M715.354 445.322c-0.459961 0 -0.933594 0.0244141 -1.40723 0.0771484c-7.40137 0.762695 -12.7646 7.38867 -11.9893 14.7764l21.4229 205.233l-156.978 -141.495c50.293 -57.0537 80.8408 -131.908 80.8408 -213.761c0 -178.444 -145.185 -323.616 -323.629 -323.616
s-323.616 145.172 -323.616 323.616s145.172 323.629 323.616 323.629c86.9189 0 165.946 -34.4463 224.148 -90.4043l157.407 141.883l-206.017 0.145508c-7.42773 0 -13.4482 6.03418 -13.4482 13.4746c0 7.42773 6.03418 13.4482 13.4619 13.4482h0.0126953
l239.021 -0.168945c4.36035 0.709961 8.98633 -0.738281 12.1855 -4.27344c2.36621 -2.62891 3.50781 -5.93848 3.45801 -9.22168c-0.000976562 -0.634766 -0.0458984 -1.25977 -0.131836 -1.87109l-24.9902 -239.404
c-0.709961 -6.92773 -6.55957 -12.0674 -13.3691 -12.0674zM323.616 606.858c-163.603 0 -296.693 -133.104 -296.693 -296.706s133.091 -296.693 296.693 -296.693s296.706 133.091 296.706 296.693s-133.104 296.706 -296.706 296.706z" />
    <glyph glyph-name="uni59790" unicode="&#xe98e;" horiz-adv-x="879" 
d="M740.385 740.385c7.43359 0 13.4629 -6.01953 13.4629 -13.46s-6.02734 -13.4609 -13.4619 -13.4609h-353.757l-239.24 -717.721c-0.120117 -0.360352 -0.363281 -0.631836 -0.509766 -0.973633c-0.236328 -0.551758 -0.520508 -1.06738 -0.820312 -1.57031
c-0.537109 -0.90332 -1.17871 -1.73145 -1.91699 -2.49023c-0.373047 -0.380859 -0.727539 -0.77832 -1.14062 -1.1084c-1.125 -0.905273 -2.3877 -1.66602 -3.81543 -2.18359c-0.116211 -0.0429688 -0.191406 -0.138672 -0.308594 -0.177734
c-0.0224609 -0.00683594 -0.0458984 -0.00390625 -0.0683594 -0.0107422c-1.39258 -0.458008 -2.80762 -0.686523 -4.19238 -0.686523s-2.7998 0.228516 -4.19238 0.686523c-0.0224609 0.00683594 -0.0458984 0.00390625 -0.0683594 0.0107422
c-0.117188 0.0390625 -0.192383 0.134766 -0.308594 0.177734c-1.42773 0.517578 -2.69043 1.27832 -3.81543 2.18359c-0.413086 0.330078 -0.767578 0.727539 -1.14062 1.1084c-0.738281 0.758789 -1.37988 1.58691 -1.91699 2.49023
c-0.299805 0.50293 -0.583984 1.01855 -0.820312 1.57031c-0.146484 0.341797 -0.389648 0.613281 -0.509766 0.972656l-57.5098 172.528h-50.873c-7.43359 0 -13.4609 6.02051 -13.4609 13.4609s6.02734 13.4609 13.4619 13.4609h60.5771
c0.181641 0 0.333008 -0.0957031 0.512695 -0.103516c0.998047 -0.0390625 1.90918 -0.326172 2.83984 -0.572266c0.757812 -0.199219 1.54199 -0.299805 2.25098 -0.625c0.798828 -0.371094 1.45508 -0.944336 2.16016 -1.45508
c0.680664 -0.493164 1.4082 -0.916992 1.99023 -1.5332c0.548828 -0.583008 0.90332 -1.31543 1.34082 -1.98926c0.513672 -0.791992 1.06738 -1.54785 1.41309 -2.46484c0.0644531 -0.168945 0.205078 -0.282227 0.262695 -0.456055l47.8057 -143.417l229.536 688.609
c0.0576172 0.173828 0.198242 0.287109 0.262695 0.456055c0.344727 0.914062 0.897461 1.66992 1.40918 2.45996c0.439453 0.676758 0.794922 1.41113 1.3457 1.99609c0.577148 0.613281 1.2998 1.03027 1.97461 1.52148
c0.708984 0.515625 1.37012 1.09375 2.17578 1.46484c0.705078 0.323242 1.48633 0.423828 2.23926 0.623047c0.933594 0.246094 1.84961 0.535156 2.85059 0.574219c0.180664 0.0078125 0.331055 0.103516 0.513672 0.103516h363.462z" />
    <glyph glyph-name="uni59791" unicode="&#xe98f;" horiz-adv-x="648" 
d="M94.2178 -94.2305c-1.82715 0 -3.68164 0.371094 -5.45605 1.16016c-6.79688 3.02344 -9.84668 10.9766 -6.83594 17.7734l49.71 111.847c-79.3223 53.1904 -131.636 143.674 -131.636 246.146c-0 163.3 132.854 296.153 296.153 296.153
c24.6699 0 49.0049 -3.08301 72.4961 -9.01953l36.3535 81.7959c3.02344 6.7832 11.0029 9.83301 17.7734 6.83594c6.79688 -3.02344 9.84668 -10.9766 6.83594 -17.7734l-34.9805 -78.7061c47.1328 -16.6279 89.8418 -45.0947 123.624 -83.3711
c4.91699 -5.57422 4.3916 -14.0801 -1.18262 -19.0098c-5.56055 -4.92969 -14.0664 -4.4043 -19.0098 1.18262c-31.1904 35.3467 -70.7578 61.4941 -114.405 76.5068l-217.835 -490.129c38.6387 -21.4648 83.082 -33.6973 130.33 -33.6973
c77.1934 0 150.798 33.2197 201.923 91.1543c4.94336 5.57422 13.4492 6.09961 19.0098 1.18262c5.57422 -4.92969 6.09961 -13.4355 1.18262 -19.0098c-56.2383 -63.7061 -137.191 -100.252 -222.115 -100.252c-51.1338 0 -99.2822 13.0264 -141.302 35.9346
l-48.3164 -108.711c-2.23438 -5.00879 -7.15137 -7.99316 -12.3174 -7.99316zM26.9219 282.695c0 -91.4932 45.8711 -172.473 115.824 -221.146l214.789 483.275c-19.9512 4.67773 -40.5361 7.10059 -61.3828 7.10059c-148.458 0 -269.23 -120.772 -269.23 -269.23z" />
    <glyph glyph-name="uni59792" unicode="&#xe990;" horiz-adv-x="522" 
d="M13.5732 -134.615c-7.43359 0 -13.46 6.01953 -13.46 13.46v888.246c-0.00195312 0.136719 -0.00195312 0.274414 0 0.412109c0.0146484 0.982422 0.133789 1.93848 0.347656 2.8584c1.04102 4.49023 4.32715 8.11621 8.61035 9.63574
c1.40723 0.5 2.9209 0.771484 4.49609 0.771484h0.209961l178.99 -2.69531c112.622 0 204.414 -91.7852 204.414 -204.604c0 -87.1211 -54.7246 -161.694 -131.602 -191.157c76.877 -29.4629 131.602 -104.036 131.602 -191.156
c0 -112.832 -91.792 -204.617 -204.618 -204.617h-165.528v-107.692c0 -7.44043 -6.02734 -13.4609 -13.4619 -13.4609zM192.564 395.773c97.9844 0 177.695 79.7178 177.695 177.695s-79.7109 177.682 -177.695 177.682l-165.528 2.48926v-740.179h165.528
c97.9844 0 177.695 79.7178 177.695 177.695s-79.7109 177.695 -177.695 177.695c-7.43359 0 -13.4609 6.02051 -13.4609 13.4609s6.02734 13.4609 13.4609 13.4609z" />
  </font>
</defs>
</svg>
